<svg width="26" height="31" viewBox="0 0 26 31" fill="none" xmlns="http://www.w3.org/2000/svg">
<path d="M24.4719 7.92705C24.9334 7.46555 24.9334 6.71745 24.4719 6.25536C24.0116 5.79386 23.2623 5.79386 22.8008 6.25536L21.3129 7.74209C19.3422 6.09818 16.8799 5.02805 14.1818 4.78341V2.36364H15.3636C16.016 2.36364 16.5455 1.83418 16.5455 1.18182C16.5455 0.529455 16.016 0 15.3636 0H10.6364C9.984 0 9.45455 0.529455 9.45455 1.18182C9.45455 1.83418 9.984 2.36364 10.6364 2.36364H11.8182V4.78341C5.20236 5.38259 0 10.9578 0 17.7273C0 24.8956 5.83168 30.7273 13 30.7273C20.1683 30.7273 26 24.8956 26 17.7273C26 14.5677 24.866 11.6687 22.9846 9.41318L24.4719 7.92705ZM13 28.3636C7.13523 28.3636 2.36364 23.592 2.36364 17.7273C2.36364 11.8625 7.13523 7.09091 13 7.09091C18.8648 7.09091 23.6364 11.8625 23.6364 17.7273C23.6364 23.592 18.8648 28.3636 13 28.3636Z" fill="black"/>
<path d="M16.8918 12.1645L12.1645 16.8918C11.703 17.3533 11.703 18.1013 12.1645 18.5628C12.3949 18.7939 12.6975 18.9091 13 18.9091C13.3026 18.9091 13.6045 18.7939 13.8356 18.5628L18.5628 13.8356C19.0243 13.3741 19.0243 12.626 18.5628 12.1645C18.1013 11.703 17.3533 11.703 16.8918 12.1645Z" fill="black"/>
</svg>
