<svg width="28" height="24" viewBox="0 0 28 24" fill="none" xmlns="http://www.w3.org/2000/svg">
<path d="M0.600001 24.0001H21.96C22.29 24.0001 22.56 23.7301 22.56 23.4001C22.56 23.2201 22.47 23.0401 22.32 22.9201L1.02 1.62007C0.840002 1.44007 0.600001 1.41007 0.360001 1.50007C0.15 1.59007 0 1.80007 0 2.04007V23.4001C0 23.7301 0.270001 24.0001 0.600001 24.0001ZM1.2 3.48008L20.52 22.8001H1.2V3.48008Z" fill="black"/>
<path d="M13.2893 19.1701L4.7993 10.6801C4.6193 10.5001 4.3793 10.4701 4.1393 10.5601C3.9293 10.6501 3.7793 10.8601 3.7793 11.1001V19.6502C3.7793 19.9802 4.0493 20.2502 4.3793 20.2502H12.9293C13.2593 20.2502 13.5293 19.9802 13.5293 19.6502C13.5293 19.4402 13.4393 19.2902 13.2893 19.1701ZM4.9793 19.0501V12.5401L11.4893 19.0501H4.9793Z" fill="black"/>
<path d="M11.5489 0.404703L7.62446 4.32915C7.39111 4.5625 7.39111 4.94434 7.62446 5.17768L17.0431 14.5964C17.0644 14.6176 17.1068 14.66 17.128 14.6812C17.1492 14.7024 17.1492 14.7024 17.1916 14.7024C17.2128 14.7236 17.2128 14.7236 17.2553 14.7236L24.0859 17.6935C24.3193 17.7996 24.5738 17.7571 24.7648 17.5662C24.9345 17.3965 24.9981 17.1207 24.892 16.8874L21.9434 10.0355C21.9222 10.0143 21.9222 10.0143 21.9222 9.97188L21.901 9.95067C21.8798 9.92945 21.8798 9.92945 21.8585 9.90824C21.8373 9.88703 21.8373 9.88703 21.8161 9.86581L12.3762 0.425917C12.1641 0.171358 11.7823 0.171357 11.5489 0.404703ZM15.0279 10.884L19.9494 10.884L17.4886 13.3448L15.0279 10.884ZM13.8187 9.67489L9.57608 5.43224L15.6855 5.43224L19.9281 9.67489L13.8187 9.67489ZM14.5188 4.22309L9.42759 4.22309L11.952 1.69871L14.4976 4.2443L14.5188 4.22309ZM23.195 15.9964L18.5493 13.9812L21.2009 11.3295L23.195 15.9964Z" fill="black"/>
</svg>
