<svg xmlns="http://www.w3.org/2000/svg" xmlns:xlink="http://www.w3.org/1999/xlink" viewBox="0 0 1792.71 1111.3"><defs><style>.cls-1{fill:url(#linear-gradient);}.cls-2{fill:#e4b96d;}.cls-3{fill:#e6bb6e;}.cls-4{fill:#e7bf72;}.cls-5{fill:#e9c576;}.cls-6{fill:#ebcc7a;}.cls-7{fill:#ecd07d;}.cls-8{fill:#edd57f;}.cls-9{fill:#eed880;}.cls-10{fill:#efdf83;}.cls-11{fill:#efdb81;}</style><linearGradient id="linear-gradient" x1="493.87" y1="3984.29" x2="69.28" y2="4233.61" gradientTransform="matrix(1, 0, 0, -1, 0, 4944.97)" gradientUnits="userSpaceOnUse"><stop offset="0" stop-color="#efdc83"/><stop offset="1" stop-color="#ecd17f"/></linearGradient></defs><title>doneCheese</title><g id="Layer_2" data-name="Layer 2"><g id="Layer_1-2" data-name="Layer 1"><path class="cls-1" d="M909.72,765.44c-171,63.24-328.84,149.86-484.37,229.5-3.12,1.56-6.12,3.12-9.24,4.68-99.36,50.28-203.64,93-316,107.52a513.16,513.16,0,0,1-100.1,3V766.28H910Z"/><path class="cls-2" d="M544.33,90.43c3.81-.67,7.62-1.34,11.43-1.92C686.24,65.53,814.6,32.05,944.07.25H0V76.9A902.13,902.13,0,0,0,168.8,109.06C294.13,121.25,421.92,111.36,544.33,90.43Z"/><path class="cls-3" d="M945.07,0C815.26,31.87,686.57,65.47,555.76,88.51c-3.81.58-7.62,1.25-11.43,1.92-122.41,20.93-250.2,30.82-375.53,18.63A903.75,903.75,0,0,1,0,76.9V216a795.09,795.09,0,0,0,180.43,29.66c120.18,6.34,240.36-9.79,355.38-35.52,3.58-.76,7.17-1.63,10.64-2.4C766.2,157.34,981.8,79.58,1211.18,38.21c195.1-35.14,391.44-28,580.83,9.79V0Z"/><path class="cls-4" d="M1211.18,36.56c-229.38,41.37-445,119.13-664.72,169.53-3.47.77-7.06,1.64-10.64,2.4-115,25.73-235.2,41.86-355.38,35.52A795.09,795.09,0,0,1,0,214.35V354c62.27,17.66,127.12,26.21,192,26.59,115.14.77,227.58-21.79,335.22-52.32,3.36-1,6.61-1.92,10-2.88C742.8,265.9,946.75,185.17,1167.05,141c209.1-42,421.46-33,624.85,12.09V766.25h.11V46.35C1602.62,8.53,1406.28,1.42,1211.18,36.56Z"/><path class="cls-5" d="M203.62,517.24c110-5.76,214.92-33.8,315-69.22,3.14-1.06,6.16-2.21,9.3-3.26C719.49,376,911.79,292.6,1123,245.36c222.62-49.72,451.73-39.17,668.87,14.19V153.11C1588.5,108,1376.14,99.06,1167,141c-220.3,44.16-424.26,124.9-629.89,184.42-3.36,1-6.61,1.92-10,2.88C419.55,358.84,307.1,381.4,192,380.63,127.12,380.24,62.27,371.7,0,354V494.39A626.3,626.3,0,0,0,203.62,517.24Z"/><path class="cls-6" d="M215.26,653.85c104.84-11.62,202.16-45.8,294.9-86,2.91-1.25,5.71-2.5,8.62-3.74C696.19,486.23,876.85,400,1079.12,349.81c235.72-58.55,482.42-47,712.88,15.91V259.57c-217.17-53.37-446.32-63.93-669-14.2C911.79,292.6,719.49,376,528,444.76c-3.14,1.05-6.16,2.21-9.3,3.26-100.12,35.43-205.07,63.46-315,69.22A626,626,0,0,1,0,494.39v141A558.25,558.25,0,0,0,215.26,653.85Z"/><path class="cls-7" d="M1079.12,349.81C876.85,400,696.19,486.23,518.78,564.08c-2.91,1.25-5.71,2.5-8.62,3.75-92.74,40.22-190.06,74.4-294.9,86A558,558,0,0,1,0,635.41V766.26H322c62.72-20.45,121.74-48.58,178.86-78.72,2.69-1.34,5.27-2.78,8-4.13,163.29-87.07,332.3-175.68,525.5-229.15,233.63-64.7,483.06-58.37,714.45,5.09,14.33,3.93,28.45,8.06,42.67,12.38V766.26h.67V365.75C1561.62,302.77,1314.88,291.25,1079.12,349.81Z"/><path class="cls-8" d="M1658,538.45a1223.33,1223.33,0,0,1,133.58,39.62V471.73c-14.22-4.32-28.34-8.45-42.67-12.38-231.39-63.46-480.82-69.79-714.45-5.09-193.2,53.47-362.21,142.08-525.5,229.15-2.69,1.35-5.27,2.79-8,4.13-57.12,30.14-116.14,58.27-178.86,78.72H558.36c132.27-82.37,272.72-157.92,433.21-207.55C1206.39,492.28,1439.57,487,1658,538.45Z"/><path class="cls-9" d="M1658,538.45c-218.4-51.45-451.58-46.17-666.4,20.26C831.08,608.34,690.63,683.89,558.36,766.26H721.11c70.45-40,145.26-75.07,226.35-103.1,195.89-67.88,412.94-85.16,618.24-45.51a1084.66,1084.66,0,0,1,155.23,42.05c24.31,8.54,48.16,18,71.57,28.32v78.24h.21V578.48A1222.44,1222.44,0,0,0,1658,538.45Z"/><path class="cls-10" d="M1473.55,696.76c84.34,12.09,166.77,35.61,242.82,69.5H906.61C1083.23,698.1,1282.48,669.3,1473.55,696.76Z"/><path class="cls-11" d="M1720.93,659.7a1084.66,1084.66,0,0,0-155.23-42.05c-205.3-39.65-422.35-22.37-618.24,45.51-81.09,28-155.9,63.07-226.35,103.1h185.5c176.62-68.16,375.87-97,566.94-69.5,84.34,12.09,166.77,35.61,242.82,69.5h76.13V688C1769.09,677.75,1745.24,668.24,1720.93,659.7Z"/></g></g></svg>