<svg xmlns="http://www.w3.org/2000/svg" xmlns:xlink="http://www.w3.org/1999/xlink" viewBox="0 0 1440.61 1111.3"><defs><style>.cls-1{fill:url(#linear-gradient);}.cls-2{fill:#e4b96d;}.cls-3{fill:#e6bb6e;}.cls-4{fill:#e7bf72;}.cls-5{fill:#e9c576;}.cls-6{fill:#ebcc7a;}.cls-7{fill:#ecd07d;}.cls-8{fill:#edd57f;}.cls-9{fill:#eed880;}.cls-10{fill:#efdf83;}.cls-11{fill:#efdb81;}</style><linearGradient id="linear-gradient" x1="493.87" y1="1553.47" x2="69.28" y2="1802.79" gradientTransform="matrix(1, 0, 0, -1, 0, 2514.16)" gradientUnits="userSpaceOnUse"><stop offset="0" stop-color="#efdc83"/><stop offset="1" stop-color="#ecd17f"/></linearGradient></defs><title>gonnaRename</title><g id="Layer_2" data-name="Layer 2"><g id="Layer_1-2" data-name="Layer 1"><path class="cls-1" d="M909.72,765.44c-171,63.24-328.84,149.86-484.37,229.5-3.12,1.56-6.12,3.12-9.24,4.68-99.36,50.28-203.64,93-316,107.52a513.16,513.16,0,0,1-100.1,3V766.28H910Z"/><path class="cls-2" d="M544.33,90.43c3.81-.67,7.62-1.34,11.43-1.92C686.24,65.53,814.6,32.05,944.07.25H0V76.9A902.13,902.13,0,0,0,168.8,109.06C294.13,121.25,421.92,111.36,544.33,90.43Z"/><path class="cls-3" d="M1440.61,0H945.07C815.26,31.87,686.57,65.47,555.76,88.51c-3.81.58-7.62,1.25-11.43,1.92-122.41,20.93-250.2,30.82-375.53,18.63A903.75,903.75,0,0,1,0,76.9V216a795.09,795.09,0,0,0,180.43,29.66c120.18,6.34,240.36-9.79,355.38-35.52,3.58-.76,7.17-1.63,10.64-2.4C766.2,157.34,981.8,79.58,1211.18,38.21a1453.11,1453.11,0,0,1,229.43-22.54Z"/><path class="cls-4" d="M1440.61,113.93A1406.34,1406.34,0,0,0,1167.05,141C946.75,185.17,742.8,265.9,537.16,325.42c-3.35,1-6.6,1.92-10,2.88C419.56,358.83,307.12,381.39,192,380.62c-64.85-.38-129.7-8.93-192-26.59V214.35A795.09,795.09,0,0,0,180.44,244c120.18,6.34,240.36-9.79,355.38-35.52,3.58-.76,7.17-1.63,10.64-2.4C766.21,155.69,981.8,77.93,1211.18,36.56A1453.11,1453.11,0,0,1,1440.61,14Z"/><path class="cls-5" d="M1440.61,213.4c-106-1.54-212.53,8.5-317.59,32C911.79,292.6,719.49,376,528,444.76c-3.14,1.05-6.16,2.2-9.3,3.26-100.13,35.42-205.07,63.46-315,69.22A626.3,626.3,0,0,1,0,494.39V354c62.27,17.66,127.12,26.2,192,26.59,115.13.77,227.58-21.79,335.21-52.32,3.36-1,6.61-1.92,10-2.88C742.78,265.91,946.74,185.17,1167,141a1405.57,1405.57,0,0,1,273.57-27.07Z"/><path class="cls-6" d="M1440.61,312.3c-121-3.72-242.62,8-361.49,37.51C876.85,400,696.19,486.23,518.78,564.09c-2.91,1.24-5.71,2.49-8.62,3.74-92.74,40.22-190.06,74.4-294.9,86A558.25,558.25,0,0,1,0,635.41v-141a626,626,0,0,0,203.62,22.85c110-5.76,214.93-33.79,315-69.22,3.14-1,6.16-2.21,9.3-3.26C719.49,376,911.79,292.6,1123,245.37c105.06-23.47,211.57-33.51,317.59-32Z"/><path class="cls-7" d="M1440.61,410.17c-136.4-6.43-273.88,7.42-406.29,44.09-193.2,53.47-362.21,142.08-525.5,229.15-2.69,1.35-5.27,2.79-8,4.13C443.74,717.68,384.72,745.81,322,766.26H0V635.41a558,558,0,0,0,215.26,18.43c104.84-11.61,202.16-45.79,294.9-86,2.91-1.25,5.71-2.5,8.62-3.75C696.19,486.23,876.85,400,1079.12,349.81c118.87-29.52,240.53-41.23,361.49-37.52Z"/><path class="cls-8" d="M1440.61,506.36c-151.26-9.41-304.32,7.59-449,52.35C831.08,608.34,690.63,683.89,558.36,766.26H322.11c62.72-20.45,121.74-48.58,178.86-78.72,2.69-1.34,5.27-2.78,8-4.13,163.29-87.07,332.3-175.68,525.5-229.15,132.37-36.66,269.82-50.52,406.18-44.1Z"/><path class="cls-9" d="M1440.61,600.58a1214.67,1214.67,0,0,0-493.15,62.58c-81.09,28-155.9,63.07-226.35,103.1H558.36c132.27-82.37,272.72-157.92,433.21-207.55,144.72-44.76,297.78-61.76,449-52.35Z"/><path class="cls-10" d="M1440.61,766.26h-534c166.49-64.25,353.1-93.53,534-73.68"/><path class="cls-11" d="M1440.61,600.58a1214.67,1214.67,0,0,0-493.15,62.58c-81.09,28-155.9,63.07-226.35,103.1h185.5c166.49-64.25,353.09-93.53,534-73.68"/></g></g></svg>