<svg width="118" height="118" viewBox="0 0 118 118" fill="none" xmlns="http://www.w3.org/2000/svg">
<g clip-path="url(#clip0)">
<path d="M116.289 53.0573L62.3745 1.35586C60.4894 -0.452605 57.5138 -0.452605 55.628 1.35586L1.71258 53.0573C0.276468 54.4343 -0.17841 56.5463 0.563691 58.3924C1.30579 60.2392 3.09606 61.4485 5.08583 61.4485H10.9954V113.126C10.9954 115.818 13.1775 118 15.869 118H102.133C104.825 118 107.007 115.818 107.007 113.126V61.4485H112.917C114.906 61.4485 116.697 60.2392 117.439 58.3924C118.18 56.5463 117.726 54.4343 116.289 53.0573ZM72.1193 82.7953C65.3156 87.8393 60.7675 89.6088 59.0013 90.1624C57.235 89.6088 52.6869 87.8393 45.8832 82.796C37.5518 76.6187 37.4121 70.5175 37.9352 65.2851C38.3192 61.4421 41.1128 57.3059 46.3381 57.3059C51.6784 57.3059 55.0133 61.431 55.1244 61.5707C56.0465 62.78 57.4664 63.5085 58.987 63.5085C60.5076 63.5085 61.9274 62.8164 62.8495 61.6065C62.9886 61.4304 66.3235 57.3059 71.6638 57.3059C76.8884 57.3059 79.682 61.4421 80.0667 65.2851C80.5898 70.5175 80.4501 76.6187 72.1193 82.7953Z" fill="#A2D9D9"/>
<rect x="34.6641" y="50.0968" width="49.3843" height="44.161" fill="#A2D9D9"/>
<path d="M52.5961 98.7686C51.4891 98.7686 50.4642 98.1454 49.9611 97.1407L41.9603 81.1612L37.5068 88.012C36.9629 88.8482 36.0328 89.353 35.035 89.353H11.0415C10.9941 86.4226 10.9941 86.0664 10.9941 85.7103C10.9941 85.7103 10.9941 84.5232 10.9941 83.4595H33.4352L39.8213 73.6361C40.3973 72.7505 41.4055 72.243 42.4583 72.2996C43.5137 72.3588 44.4561 72.9782 44.9291 73.9227L51.7382 87.5223L58.6523 61.314C58.9715 60.1043 60.0203 59.2277 61.2681 59.1282C62.5142 59.0284 63.6906 59.7278 64.1977 60.8716L69.2461 72.2607L73.495 65.6772C74.0343 64.8422 74.958 64.3347 75.9523 64.328C76.9607 64.318 77.8772 64.8162 78.4275 65.644L82.8468 72.2946H105.319C106.947 72.2946 108.267 73.6138 108.267 75.2412C108.267 76.8686 106.947 78.1878 105.319 78.1878H81.2659C80.2785 78.1878 79.3567 77.6936 78.8103 76.8717L76.0079 72.6543L71.24 80.0422C70.6528 80.9521 69.6125 81.4672 68.5333 81.3826C67.4533 81.2983 66.5066 80.6285 66.0677 79.6386L62.2105 70.9369L55.4475 96.5732C55.1348 97.7585 54.1204 98.6267 52.9007 98.7527C52.7985 98.7632 52.6971 98.7686 52.5961 98.7686Z" fill="#094972"/>
</g>
<defs>
<clipPath id="clip0">
<rect width="118" height="118" fill="white"/>
</clipPath>
</defs>
</svg>
