<svg width="26" height="26" viewBox="0 0 26 26" fill="none" xmlns="http://www.w3.org/2000/svg">
<path d="M26 13.195C25.936 15.043 25.9537 17.1611 25.7597 19.2563C25.493 22.1343 24.0621 24.2749 21.255 25.2648C20.3368 25.5857 19.3744 25.762 18.402 25.7874C15.192 25.8644 11.979 25.8605 8.76726 25.8479C7.21758 25.8419 5.66488 25.7511 4.21722 25.101C1.9932 24.1016 0.676519 22.3548 0.287911 19.9829C0.0678872 18.6308 0.0121248 17.245 0.00564077 15.8738C-0.00862403 12.9292 -0.00300456 9.98158 0.108953 7.03957C0.200161 4.63573 1.15763 2.61186 3.23511 1.2472C4.55914 0.373584 6.05867 0.0433323 7.61224 0.0286352C11.1763 -0.00378482 14.7403 -0.0158883 18.3052 0.0312288C20.3766 0.0588939 22.2855 0.618247 23.8015 2.15668C25.1273 3.50147 25.7125 5.16224 25.8133 6.99418C25.9218 8.9705 25.936 10.952 26 13.195ZM13.0415 2.24227C10.974 2.30841 8.93497 2.31187 6.90332 2.45408C4.35511 2.63261 2.5906 4.31802 2.51149 6.8632C2.38829 10.8401 2.43368 14.8234 2.46567 18.8037C2.46733 19.9125 2.86534 20.9842 3.58784 21.8253C4.63695 23.0589 6.05608 23.4562 7.57377 23.4743C11.1516 23.5176 14.7308 23.502 18.3091 23.4743C19.4425 23.4648 20.5491 23.228 21.5079 22.5666C22.8518 21.6364 23.4362 20.2609 23.4643 18.7039C23.5313 14.9972 23.5179 11.2883 23.5076 7.58034C23.5076 6.62503 23.3217 5.68355 22.8661 4.82593C22.062 3.313 20.7186 2.57814 19.0794 2.46316C17.0612 2.31835 15.0356 2.30841 13.0415 2.24227Z" fill="#F2F1F1"/>
<path d="M6.28839 12.9609C6.25338 9.30954 9.22046 6.2841 12.8714 6.24693C16.5456 6.20975 19.6022 9.15954 19.6372 12.7798C19.6735 16.5427 16.7467 19.5564 13.0235 19.5888C9.33328 19.6213 6.32384 16.6594 6.28839 12.9609ZM12.9656 17.2317C15.3772 17.2222 17.2749 15.3059 17.2667 12.8883C17.2646 12.3231 17.1508 11.764 16.9318 11.243C16.7128 10.722 16.3929 10.2494 15.9906 9.8525C15.5883 9.45558 15.1115 9.14212 14.5876 8.93017C14.0637 8.71822 13.5031 8.61195 12.938 8.61748C10.5484 8.63002 8.64727 10.5601 8.65851 12.9626C8.66072 13.5258 8.77391 14.0831 8.99161 14.6025C9.20931 15.1219 9.52726 15.5934 9.92727 15.9898C10.3273 16.3863 10.8015 16.7001 11.3228 16.9132C11.8442 17.1262 12.4024 17.2345 12.9656 17.2317Z" fill="#F2F1F1"/>
<path d="M18.3252 6.00859C18.323 5.14665 19.0116 4.43427 19.8533 4.42779C20.7364 4.42087 21.4475 5.1125 21.4527 5.98395C21.4543 6.18927 21.4155 6.39291 21.3385 6.58325C21.2615 6.77358 21.1477 6.94688 21.0037 7.09325C20.8597 7.23962 20.6883 7.35619 20.4993 7.43631C20.3102 7.51643 20.1072 7.55853 19.9019 7.56021C19.6966 7.56188 19.4929 7.5231 19.3026 7.44607C19.1123 7.36904 18.939 7.25528 18.7926 7.11128C18.497 6.82046 18.329 6.42412 18.3256 6.00945L18.3252 6.00859Z" fill="#F2F1F1"/>
</svg>
