<svg width="31" height="30" viewBox="0 0 31 30" fill="none" xmlns="http://www.w3.org/2000/svg">
<path d="M30.1683 15.3105C30.0941 17.4547 30.1146 19.9124 29.8894 22.3435C29.58 25.6829 27.9198 28.1667 24.6626 29.3152C23.5972 29.6875 22.4804 29.8921 21.3523 29.9216C17.6276 30.0109 13.8995 30.0064 10.1728 29.9919C8.3747 29.9848 6.57307 29.8795 4.89332 29.1252C2.31275 27.9655 0.784978 25.9387 0.334069 23.1866C0.0787708 21.6177 0.0140686 20.0097 0.0065451 18.4187C-0.0100066 15.002 -0.00348625 11.5818 0.12642 8.16815C0.23225 5.37893 1.34322 3.03059 3.75376 1.44715C5.29006 0.433477 7.03 0.0502793 8.83263 0.033226C12.9681 -0.0043916 17.1035 -0.0184355 21.2399 0.0362354C23.6434 0.0683357 25.8583 0.717364 27.6173 2.50244C29.1556 4.06282 29.8348 5.98984 29.9516 8.11549C30.0775 10.4087 30.0941 12.7078 30.1683 15.3105ZM15.1323 2.60175C12.7333 2.67849 10.3674 2.68251 8.01006 2.84752C5.05332 3.05467 3.00592 5.01028 2.91413 7.96351C2.77119 12.5779 2.82385 17.1999 2.86097 21.8183C2.86289 23.1049 3.32471 24.3483 4.16304 25.3243C5.38034 26.7557 7.02699 27.2167 8.78799 27.2378C12.9395 27.2879 17.0924 27.2699 21.2444 27.2378C22.5595 27.2267 23.8435 26.9519 24.956 26.1845C26.5154 25.1051 27.1935 23.5091 27.2261 21.7025C27.3039 17.4015 27.2883 13.0981 27.2763 8.79561C27.2763 7.68715 27.0606 6.59473 26.5319 5.59962C25.599 3.84414 24.0402 2.99147 22.1382 2.85805C19.7964 2.69003 17.4461 2.67849 15.1323 2.60175Z" fill="#E3B76D"/>
<path d="M7.29625 15.0388C7.25563 10.8021 10.6984 7.29158 14.9346 7.24845C19.198 7.20532 22.7445 10.628 22.7852 14.8286C22.8273 19.1948 19.4312 22.6917 15.1112 22.7293C10.8293 22.767 7.33738 19.3302 7.29625 15.0388ZM15.044 19.9943C17.8422 19.9833 20.0441 17.7598 20.0346 14.9545C20.0322 14.2988 19.9001 13.65 19.646 13.0455C19.3919 12.4409 19.0208 11.8926 18.554 11.4321C18.0872 10.9715 17.5339 10.6078 16.926 10.3619C16.3181 10.1159 15.6676 9.99263 15.0119 9.99905C12.2392 10.0136 10.0333 12.2531 10.0463 15.0408C10.0489 15.6943 10.1802 16.3409 10.4329 16.9436C10.6855 17.5463 11.0544 18.0933 11.5185 18.5533C11.9827 19.0134 12.5329 19.3774 13.1378 19.6247C13.7428 19.8719 14.3905 19.9975 15.044 19.9943V19.9943Z" fill="#E3B76D"/>
<path d="M21.2627 6.97199C21.2602 5.97186 22.0592 5.14528 23.0357 5.13775C24.0604 5.12973 24.8855 5.93224 24.8915 6.9434C24.8935 7.18164 24.8485 7.41793 24.7591 7.63878C24.6697 7.85963 24.5377 8.06071 24.3706 8.23054C24.2036 8.40038 24.0047 8.53564 23.7853 8.62861C23.5659 8.72157 23.3304 8.77042 23.0922 8.77236C22.8539 8.77431 22.6176 8.72931 22.3968 8.63993C22.1759 8.55056 21.9749 8.41856 21.805 8.25147C21.462 7.91402 21.2671 7.45414 21.2632 6.97299L21.2627 6.97199Z" fill="#E3B76D"/>
</svg>
