<svg width="31" height="30" viewBox="0 0 31 30" fill="none" xmlns="http://www.w3.org/2000/svg">
<path d="M16.6063 12.1558C18.0994 11.3537 19.4321 10.2883 20.9335 9.90988C25.8695 8.67588 29.6702 11.0616 29.9458 16.228C30.1638 20.3413 29.991 24.4546 30.0116 28.5433C30.0116 29.6045 29.481 29.9953 28.4814 29.9912C22.9161 29.9665 23.9568 30.5136 23.8663 25.6845C23.8252 23.2905 23.8663 20.8925 23.8457 18.4985C23.8252 16.1046 22.6117 14.8582 20.588 14.8377C19.6159 14.83 18.6804 15.2079 17.9865 15.8887C17.2926 16.5696 16.8968 17.4977 16.886 18.4697C16.7996 21.6123 16.886 24.7631 16.8448 27.9304C16.8448 29.9007 16.7338 29.987 14.7224 29.987C10.1648 29.987 10.7242 30.4189 10.7036 26.1164C10.6707 21.5259 10.6954 16.9437 10.6954 12.345C10.6954 10.3582 10.8106 10.2883 12.7891 10.2389C13.2704 10.2389 13.7475 10.2389 14.2288 10.2389C16.1703 10.2883 16.1703 10.2883 16.6063 12.1558Z" fill="#E3B76D"/>
<path d="M0.411074 20.004C0.411074 17.4003 0.386394 14.813 0.411074 12.1969C0.431641 10.4323 0.571494 10.3089 2.25796 10.2554C3.0107 10.2308 3.76755 10.2266 4.52029 10.2554C6.05456 10.3254 6.51114 10.6668 6.5276 12.2257C6.58107 17.6347 6.54405 23.0397 6.58107 28.461C6.58107 29.4606 6.19853 29.9871 5.13318 29.9871C-0.572012 29.9789 0.501568 30.4971 0.411074 25.7586C0.374054 23.8623 0.411074 21.925 0.411074 20.004Z" fill="#E3B76D"/>
<path d="M3.38162 6.94399C1.27971 6.90286 -0.0283275 5.52901 0.000465803 3.3983C0.00260023 2.93605 0.0985849 2.47904 0.282601 2.05499C0.466617 1.63094 0.734831 1.24867 1.07098 0.931365C1.40714 0.614058 1.80423 0.368321 2.23818 0.20905C2.67213 0.0497791 3.13391 -0.0197074 3.59552 0.00480275C5.29432 0.0747294 6.99313 1.87225 6.93965 3.56283C6.88618 5.69765 5.52878 6.99746 3.38162 6.94399Z" fill="#E3B76D"/>
</svg>
