<svg width="26" height="26" viewBox="0 0 26 26" fill="none" xmlns="http://www.w3.org/2000/svg">
<path d="M14.3649 10.5148C15.6565 9.82095 16.8093 8.89939 18.108 8.57204C22.3778 7.5046 25.6655 9.56832 25.9039 14.0373C26.0925 17.5955 25.943 21.1536 25.9608 24.6904C25.9608 25.6084 25.5018 25.9464 24.6372 25.9428C19.823 25.9215 20.7232 26.3947 20.645 22.2175C20.6094 20.1466 20.645 18.0723 20.6272 16.0014C20.6094 13.9306 19.5597 12.8525 17.8091 12.8347C16.9683 12.828 16.159 13.155 15.5588 13.7439C14.9585 14.3328 14.6162 15.1357 14.6068 15.9765C14.5321 18.6949 14.6068 21.4205 14.5712 24.1602C14.5712 25.8646 14.4752 25.9393 12.7352 25.9393C8.79283 25.9393 9.27673 26.3129 9.25894 22.5911C9.23048 18.6202 9.25183 14.6564 9.25183 10.6785C9.25183 8.95988 9.35145 8.89939 11.0629 8.85669C11.4792 8.85669 11.892 8.85669 12.3083 8.85669C13.9877 8.89939 13.9877 8.89939 14.3649 10.5148Z" fill="#F2F1F1"/>
<path d="M0.355766 17.3037C0.355766 15.0514 0.334417 12.8133 0.355766 10.5503C0.373556 9.02389 0.494533 8.91714 1.95337 8.87089C2.60451 8.84954 3.2592 8.84598 3.91034 8.87089C5.23752 8.93138 5.63248 9.2267 5.64671 10.5752C5.69297 15.2542 5.66094 19.9296 5.69297 24.6192C5.69297 25.4838 5.36206 25.9393 4.4405 25.9393C-0.494628 25.9321 0.434044 26.3805 0.355766 22.2815C0.323742 20.6412 0.355766 18.9653 0.355766 17.3037Z" fill="#F2F1F1"/>
<path d="M2.92519 6.00673C1.10698 5.97114 -0.024504 4.78273 0.000402931 2.93961C0.00224927 2.53975 0.0852784 2.14443 0.244457 1.77762C0.403635 1.4108 0.635647 1.08013 0.926428 0.805654C1.21721 0.531175 1.5607 0.318607 1.93608 0.180833C2.31146 0.0430602 2.71091 -0.0170474 3.11021 0.0041545C4.57972 0.0646428 6.04923 1.61955 6.00297 3.08194C5.95672 4.92861 4.78253 6.05298 2.92519 6.00673Z" fill="#F2F1F1"/>
</svg>
