<svg width="127" height="126" viewBox="0 0 127 126" fill="none" xmlns="http://www.w3.org/2000/svg">
<path d="M44.2752 56.0005C49.2593 56.0005 54.1314 54.3583 58.2756 51.2816C62.4197 48.2049 65.6496 43.8319 67.557 38.7155C69.4643 33.5991 69.9633 27.9692 68.991 22.5377C68.0186 17.1062 65.6186 12.117 62.0943 8.2011C58.57 4.28519 54.0798 1.61843 49.1915 0.53803C44.3031 -0.542366 39.2363 0.0121321 34.6316 2.13141C30.0269 4.25068 26.0912 7.83954 23.3222 12.4442C20.5531 17.0488 19.0752 22.4623 19.0752 28.0003C19.0752 35.4264 21.7302 42.5484 26.4561 47.7994C31.182 53.0505 37.5917 56.0005 44.2752 56.0005Z" fill="#094972"/>
<path d="M94.6783 70.0012C98.4164 70.0012 102.071 68.7696 105.179 66.4621C108.287 64.1545 110.709 60.8748 112.14 57.0375C113.57 53.2002 113.944 48.9778 113.215 44.9041C112.486 40.8305 110.686 37.0886 108.043 34.1517C105.399 31.2147 102.032 29.2147 98.3655 28.4044C94.6993 27.5941 90.8991 28.01 87.4456 29.5994C83.9921 31.1889 81.0403 33.8805 78.9635 37.334C76.8868 40.7874 75.7783 44.8476 75.7783 49.0011C75.7783 54.5706 77.7696 59.9121 81.314 63.8504C84.8584 67.7887 89.6657 70.0012 94.6783 70.0012Z" fill="#094972"/>
<path d="M119.877 119C121.548 119 123.15 118.262 124.332 116.95C125.513 115.637 126.177 113.856 126.177 112C126.172 105.458 124.516 99.0478 121.399 93.4978C118.281 87.9478 113.826 83.4798 108.539 80.6008C103.252 77.7217 97.3441 76.5469 91.4864 77.2095C85.6287 77.8721 80.0553 80.3457 75.3988 84.3495C69.228 77.52 61.3753 72.8736 52.831 70.9964C44.2868 69.1192 35.4336 70.0952 27.3879 73.8014C19.3422 77.5076 12.4644 83.7779 7.62173 91.8216C2.77909 99.8654 0.18854 109.322 0.176758 119C0.176758 120.856 0.840506 122.637 2.02198 123.95C3.20346 125.262 4.80589 126 6.47676 126H82.0768C83.7476 126 85.3501 125.262 86.5315 123.95C87.713 122.637 88.3768 120.856 88.3768 119" fill="#094972"/>
<path d="M26.9482 30.8465L44.033 29.4227L60.833 30.8465L57.416 46.5076H31.0771L26.9482 30.8465Z" fill="#A2D9D9"/>
<path d="M56.2786 32.0285L69.5192 25.9425L69.5193 27.8407L57.0159 34.0861L56.2786 32.0285Z" fill="#A2D9D9"/>
<path d="M56.8199 44.1857L65.6724 42.8693L64.5309 44.6602L57.2706 46.5282L56.8199 44.1857Z" fill="#A2D9D9"/>
<path d="M31.5007 44.0281L22.6746 42.5533L23.9559 44.6099L31.0376 46.4828L31.5007 44.0281Z" fill="#A2D9D9"/>
<path d="M32.1687 32.6609L18.928 26.5749L18.928 28.4732L31.4313 34.7185L32.1687 32.6609Z" fill="#A2D9D9"/>
<path d="M81.8779 52.0343L94.5168 50.9811L106.945 52.0343L104.417 63.6201H84.9323L81.8779 52.0343Z" fill="#A2D9D9"/>
<path d="M103.575 52.9095L113.504 48.4072L113.504 49.8309L104.12 54.4317L103.575 52.9095Z" fill="#A2D9D9"/>
<path d="M103.974 61.9029L110.226 60.9044L109.514 62.0117L104.307 63.6358L103.974 61.9029Z" fill="#A2D9D9"/>
<path d="M85.3052 61.8076L78.9069 60.5874L79.9035 62.1693L84.9626 63.6235L85.3052 61.8076Z" fill="#A2D9D9"/>
<path d="M85.7789 53.2683L75.7739 48.724L75.7739 50.1477L85.1942 54.9002L85.7789 53.2683Z" fill="#A2D9D9"/>
</svg>
