<svg width="219" height="300" viewBox="0 0 219 300" fill="none" xmlns="http://www.w3.org/2000/svg">
<path d="M187.145 177.172C176.545 179.36 169.093 174.856 162.209 168.684C158.536 165.413 157.53 165.746 153.603 169.003C143.922 177 133.32 182.163 120.38 180.947C117.737 180.786 115.002 180.96 112.369 180.926C111.067 180.988 109.77 180.718 108.6 180.143C107.429 179.567 106.424 178.704 105.678 177.635C104.932 176.565 104.469 175.324 104.333 174.027C104.197 172.73 104.392 171.42 104.901 170.219C107.385 162.967 111.492 157.32 119.03 154.515C122.811 152.914 126.51 151.123 130.111 149.149C137.354 145.574 144.527 144.648 152.226 148.324C155.715 149.699 159.421 150.44 163.17 150.513C168.253 150.93 173.351 143.138 170.841 138.432C165.279 127.913 162.15 116.574 158.508 105.419C157.824 103.648 157.05 101.914 156.189 100.223C153.08 102.209 150.793 105.253 149.753 108.794C147.988 115.426 145.382 121.738 140.232 126.534C133.012 133.265 124.524 136.083 114.727 133.3C111.644 132.414 108.639 131.138 105.618 130.112C102.636 129.114 99.9582 127.37 97.8406 125.045C95.7229 122.72 94.2355 119.891 93.5199 116.829C92.5905 112.284 91.8943 107.695 91.434 103.08C91.2578 101.85 91.336 100.564 91.1598 99.3347C91.1544 98.795 91.0371 98.2623 90.8152 97.7703C90.5933 97.2783 90.2718 96.8378 89.8709 96.4764C89.47 96.1151 88.9984 95.8409 88.4861 95.6712C87.9738 95.5015 87.4318 95.44 86.8945 95.4905C78.1734 95.9462 69.3886 95.681 60.835 98.1006C59.7061 98.3486 58.6613 98.8863 57.8033 99.6607C56.9454 100.435 56.3039 101.42 55.942 102.517C54.2792 107.166 51.8144 111.444 52.4888 116.862C52.8967 120.472 51.2969 124.085 49.6154 127.567C48.7409 127.21 47.8643 126.887 47.8664 126.852C48.8276 123.72 45.9685 121.216 46.4957 118.147C46.5388 117.804 46.5127 117.457 46.419 117.125C46.3252 116.793 46.1657 116.483 45.95 116.214C42.822 113.12 42.3406 108.95 41.2547 104.994C41.0312 103.949 40.6446 102.946 40.109 102.021C37.1686 97.6119 32.5301 95.4837 28.5373 92.4627L27.675 93.3782C29.7061 95.9394 31.7551 98.5017 33.7293 101.113C35.3185 103.045 36.7461 105.104 37.9975 107.27C39.7957 110.713 40.7437 114.284 37.475 117.634C37.0345 117.955 36.6797 118.379 36.4416 118.87C36.2035 119.36 36.0895 119.901 36.1095 120.446C36.1294 120.99 36.2829 121.522 36.5563 121.993C36.8297 122.464 37.2147 122.861 37.6774 123.149C38.6017 123.958 39.3148 124.979 39.755 126.126C39.7922 126.547 39.7364 126.971 39.5915 127.368C39.4465 127.765 39.216 128.125 38.9163 128.423C38.6382 128.618 38.3135 128.737 37.9749 128.766C37.6364 128.796 37.296 128.736 36.988 128.592C34.8952 126.458 32.364 124.457 31.1598 121.857C30.6761 120.606 30.6325 119.229 31.036 117.95C31.4395 116.672 32.2661 115.568 33.3799 114.822C35.8518 112.786 34.2457 106.181 31.197 105.028C30.5319 104.819 29.8153 104.845 29.1671 105.102C27.5185 105.804 26.1571 107.044 25.3058 108.621C24.4544 110.197 24.1637 112.016 24.4811 113.779C25.139 117.404 26.146 120.889 27.1194 124.927C23.1727 124.687 22.1287 121.81 21.1502 119.33C20.1832 116.585 19.4255 113.771 18.8837 110.912C18.503 109.709 18.5105 108.416 18.905 107.218C19.2996 106.019 20.0613 104.975 21.0821 104.234C21.986 103.658 22.8408 103.009 23.6379 102.292C24.0104 102.031 24.3092 101.678 24.5057 101.268C24.7022 100.857 24.7896 100.403 24.7596 99.9494C24.7295 99.4955 24.583 99.0569 24.3342 98.676C24.0853 98.2952 23.7426 97.9848 23.3389 97.7749C21.6269 96.452 19.7877 95.1572 17.6779 93.595C15.5496 96.2418 14.2668 99.4676 13.9963 102.853C13.2948 112.328 14.5021 121.364 20.8454 129.063C22.5118 131.136 23.9487 133.446 25.4814 135.654C28.0681 139.396 31.3055 141.869 36.0688 141.944C40.8322 142.018 42.2566 144.829 41.8136 149.463L43.153 149.544C43.2845 149.053 43.4515 148.572 43.6527 148.105C45.8729 143.723 48.0674 143.301 50.7271 147.316C52.8599 150.408 54.4687 153.831 55.4886 157.446C56.4981 161.059 58.2538 164.42 60.6425 167.313C64.2675 171.961 67.8925 176.609 71.5743 181.206C72.3421 182.188 73.2274 183.073 74.2104 183.84C86.6134 193.287 99.3877 201.933 114.516 206.652C119.441 208.188 124.25 210.166 129.005 212.157C134.371 214.402 138.515 212.287 142.786 209.249C144.96 207.749 147.438 206.749 150.044 206.32C152.778 205.73 155.627 205.986 158.213 207.052C160.799 208.118 162.999 209.945 164.523 212.291C164.936 212.872 165.311 213.486 165.789 214.161C175.382 210.567 183.075 205.801 184.447 194.736C184.887 191.034 186.057 187.413 186.712 183.706C186.965 181.537 187.11 179.356 187.145 177.172ZM153.162 196.616C151.517 196.247 150.65 196.069 149.784 195.855C144.593 194.571 142.776 191.127 145.273 186.331C146.284 184.53 147.915 183.158 149.863 182.47C152.628 181.803 155.476 181.553 158.315 181.729C159.82 181.871 161.241 182.486 162.375 183.485C163.508 184.485 164.297 185.818 164.626 187.293C164.959 188.781 164.744 190.339 164.021 191.682C163.297 193.024 162.113 194.06 160.687 194.6C158.22 195.393 155.708 196.042 153.166 196.544L153.162 196.616Z" fill="white"/>
<path d="M71.1089 80.3343C80.1348 79.2878 89.299 78.9128 98.0945 76.9381C103.419 75.7382 108.634 73.9939 114.092 72.9634C123.982 71.2389 134.143 71.9366 143.705 74.9967C145.159 75.4545 146.486 76.2464 147.579 77.3088C148.672 78.3713 149.501 79.6748 150.001 81.1152C151.171 83.9826 157.579 86.774 160.356 85.6164C161.55 84.8985 162.552 83.9014 163.275 82.7109C165.668 79.612 167.992 76.4731 170.299 73.3153C171.229 72.1048 172.411 71.1114 173.763 70.4042C175.116 69.6971 176.606 69.2932 178.13 69.2206C183.419 68.6101 188.727 67.9827 194.03 67.4447C198.809 66.9645 199.653 66.3526 199.601 61.5995C199.735 50.702 198.175 39.8498 194.978 29.4309C193.316 23.6047 190.423 18.2028 186.495 13.5898C182.935 9.64506 180.782 9.08401 174.993 10.8472C172.947 11.5061 170.969 12.3581 169.085 13.3917C158.924 18.6533 148.538 23.5067 139.835 31.0258C133.893 36.1852 128.304 41.7379 123.105 47.6464C114.618 57.2219 104.67 64.5935 92.4641 68.4222C86.3615 70.3277 79.916 71.3877 73.4499 69.5427C72.9432 69.3731 72.4234 69.2456 71.8957 69.1615C66.8646 68.4792 63.2191 72.1293 64.2453 77.0671C64.4669 77.5937 64.8004 78.0657 65.2227 78.4505C65.6451 78.8352 66.1461 79.1234 66.691 79.295C68.0982 79.5518 69.5312 79.6389 70.9592 79.5545L71.1089 80.3343Z" fill="white"/>
<path d="M30.0525 192.555C28.6712 192.922 27.335 193.442 26.0687 194.105C20.0636 198.239 14.1403 202.504 8.16767 206.694C6.8791 207.507 5.85285 208.675 5.21233 210.057C4.57181 211.44 4.3443 212.978 4.55716 214.486C4.92251 221.772 6.40188 228.959 8.94375 235.796C11.5651 242.211 13.6511 248.881 16.5501 255.151C20.4678 263.977 26.3737 271.777 33.806 277.942C39.0351 282.15 44.7476 285.777 50.5915 289.897C51.7681 288.912 52.8437 287.813 53.8023 286.615C56.0959 282.793 58.165 278.832 60.4408 275.009C64.1165 268.797 68.1298 262.929 75.8711 261.195C76.1211 261.21 76.2798 260.664 76.7296 260.046C52.8827 243.361 34.8569 222.62 30.0525 192.555Z" fill="white"/>
<path d="M200.429 77.4415C194.349 77.8067 187.948 78.1346 181.541 78.5517C179.831 78.6343 178.181 79.2056 176.787 80.1978C175.392 81.1901 174.311 82.5617 173.673 84.1498C171.176 89.2498 169.468 94.3441 171.553 100.153C172.667 103.34 173.141 106.756 174.054 110.02C176.304 118.115 181.105 121.705 189.523 120.926C198.538 120.058 206.164 116.381 209.158 106.938C211.038 100.984 212.603 94.9341 213.844 88.8145C214.228 86.4942 213.7 84.1154 212.372 82.1745C211.044 80.2336 209.018 78.8804 206.716 78.3973C204.639 77.97 202.54 77.6509 200.429 77.4415Z" fill="white"/>
<path d="M143.565 98.2176C143.375 95.2251 142.956 92.2516 142.314 89.3227C141.855 87.4847 140.85 85.8284 139.433 84.5715C138.015 83.3145 136.251 82.5155 134.371 82.2795C127.261 81.2916 120.147 80.3752 113.187 83.1247C110.631 83.9203 108.03 84.5642 105.398 85.0531C102.811 85.7382 100.646 87.1481 100.278 89.9578C98.8925 100.073 99.5823 109.955 107.668 117.294C110.704 120.207 114.612 122.044 118.793 122.521C122.973 122.999 127.195 122.091 130.809 119.937C139.404 114.778 142.569 107.532 143.565 98.2176Z" fill="white"/>
<path d="M174.973 126.459C175.234 127.911 175.665 129.327 176.258 130.678C178.12 133.334 178.996 136.557 178.734 139.791C178.558 141.227 178.936 142.676 179.79 143.844C180.645 145.011 181.912 145.809 183.335 146.075C188.066 147.564 190.184 151.349 191.545 155.787C192.247 158.106 192.948 160.425 193.718 163.089C197.878 159.237 202.173 141.951 202.684 129.13C200.558 127.835 198.534 129.272 196.674 129.804C192.933 131.08 188.856 130.946 185.207 129.43C181.861 128.226 178.443 127.234 174.973 126.459Z" fill="white"/>
<path d="M140.786 235.924C135.055 244.699 134.002 253.167 134.473 262.517C143.081 261.57 144.329 268.762 147.966 274.97C148.275 273.73 148.442 272.46 148.465 271.182C146.939 261.5 145.395 251.817 143.648 242.21C142.92 240.019 141.961 237.912 140.786 235.924Z" fill="white"/>
</svg>
