<svg width="27" height="24" viewBox="0 0 27 24" fill="none" xmlns="http://www.w3.org/2000/svg">
<path d="M13.3754 14.8621C14.8451 14.8621 16.2818 14.4263 17.5039 13.6097C18.7259 12.7932 19.6783 11.6326 20.2408 10.2748C20.8032 8.91694 20.9504 7.42281 20.6636 5.98132C20.3769 4.53984 19.6692 3.21576 18.6299 2.17651C17.5907 1.13726 16.2666 0.429517 14.8251 0.142789C13.3836 -0.14394 11.8895 0.00321975 10.5316 0.565658C9.1738 1.1281 8.01323 2.08055 7.19669 3.30258C6.38016 4.52461 5.94434 5.96133 5.94434 7.43105C5.94434 9.40189 6.72725 11.292 8.12084 12.6856C9.51443 14.0792 11.4045 14.8621 13.3754 14.8621ZM13.3754 2.22932C14.4042 2.22932 15.4099 2.53439 16.2653 3.10597C17.1207 3.67754 17.7875 4.48994 18.1812 5.44043C18.5749 6.39092 18.6779 7.43682 18.4772 8.44586C18.2765 9.4549 17.781 10.3818 17.0536 11.1092C16.3261 11.8367 15.3992 12.3321 14.3902 12.5328C13.3812 12.7335 12.3353 12.6305 11.3848 12.2368C10.4343 11.8431 9.62187 11.1764 9.0503 10.321C8.47873 9.46556 8.17365 8.45986 8.17365 7.43105C8.17365 6.05146 8.72169 4.72838 9.6972 3.75287C10.6727 2.77736 11.9958 2.22932 13.3754 2.22932Z" fill="black"/>
<path d="M26.2542 21.736C22.4439 19.1849 17.9617 17.823 13.3762 17.823C8.79075 17.823 4.30857 19.1849 0.498232 21.736C0.376249 21.817 0.271414 21.9212 0.189713 22.0427C0.108012 22.1643 0.0510447 22.3007 0.0220631 22.4442C-0.0364677 22.7341 0.0225481 23.0353 0.186127 23.2817C0.349707 23.528 0.604451 23.6993 0.894318 23.7578C1.18418 23.8164 1.48543 23.7574 1.73179 23.5938C5.17691 21.2865 9.22984 20.0546 13.3762 20.0546C17.5226 20.0546 21.5756 21.2865 25.0207 23.5938C25.2029 23.7163 25.4179 23.781 25.6375 23.7796C25.877 23.7797 26.1102 23.7027 26.3025 23.5599C26.4948 23.4172 26.636 23.2163 26.7052 22.987C26.7744 22.7577 26.7679 22.5122 26.6867 22.2869C26.6055 22.0616 26.4538 21.8684 26.2542 21.736Z" fill="black"/>
</svg>
