<svg width="533" height="286" viewBox="0 0 533 286" fill="none" xmlns="http://www.w3.org/2000/svg">
<mask id="mask0" mask-type="alpha" maskUnits="userSpaceOnUse" x="0" y="0" width="533" height="286">
<path d="M0 34.2646V122.335L35.4146 240.313L97.0153 286H503.827L533 141.832L253.878 0H161.186H21.808L0 34.2646Z" fill="#E3B76D"/>
</mask>
<g mask="url(#mask0)">
<path d="M-841.514 939L605.384 939L605.384 0L-841.514 0.00019364L-841.514 939Z" fill="#E3B76D"/>
<path d="M165.889 110.985C264.73 136.573 367.912 148.78 469.104 133.756C515.405 127.066 561.073 114.272 605.384 94.5528L605.384 0.418077L-157.674 0.418178C-52.8641 39.3866 51.0412 80.3505 156.665 108.638C159.739 109.459 162.814 110.164 165.889 110.985Z" fill="#E6BE72" fill-opacity="0.34"/>
<path d="M-841.514 939L605.384 939L605.384 94.1346C561.073 113.854 515.405 126.765 469.104 133.455C367.912 148.362 264.73 136.272 165.889 110.684C162.814 109.863 159.739 109.041 156.665 108.337C51.0411 80.167 -52.8642 39.0857 -157.674 0.117265L-841.514 0.117357L-841.514 939Z" fill="#E8C476" fill-opacity="0.34"/>
<path d="M172.761 257.051C169.868 256.112 166.974 255.056 164.17 254.117C-13.2554 192.495 -187.335 97.4214 -372.538 46.8328C-530.069 3.87356 -688.595 12.5593 -841.514 58.805L-841.514 939L605.384 939L605.384 264.211C558.088 284.869 509.075 296.724 459.699 300.48C362.667 308.227 265.634 288.508 172.761 257.051Z" fill="#EACB7B" fill-opacity="0.34"/>
<path d="M605.384 939L605.384 434.992C555.104 456.589 502.744 467.035 450.385 467.505C357.422 468.444 266.629 440.86 179.725 403.535C177.012 402.361 174.389 401.188 171.676 400.014C5.64473 327.242 -159.03 228.529 -336.908 174.537C-505.743 123.244 -677.2 134.16 -841.423 189.326L-841.423 939L605.384 939Z" fill="#EDD17F" fill-opacity="0.34"/>
<path d="M440.98 634.529C352.177 627.487 267.443 593.213 186.597 549.902C184.065 548.611 181.624 547.202 179.092 545.911C24.4544 461.871 -130.816 359.872 -301.369 302.123C-481.146 241.323 -666.168 254.235 -841.514 319.495L-841.514 939L605.384 939L605.384 606.594C552.029 629.599 496.324 638.872 440.98 634.529Z" fill="#EFD884" fill-opacity="0.34"/>
</g>
</svg>
