<svg width="533" height="282" viewBox="0 0 533 282" fill="none" xmlns="http://www.w3.org/2000/svg">
<mask id="mask0" mask-type="alpha" maskUnits="userSpaceOnUse" x="0" y="0" width="533" height="282">
<path d="M533 248.215V161.376L497.585 45.0481L146.5 0H29.1733L0 142.152L158.5 273L371.814 282H511.192L533 248.215Z" fill="#E3B76D"/>
</mask>
<g mask="url(#mask0)">
<path d="M-841.514 282L605.384 282L605.384 -657L-841.514 -657L-841.514 282Z" fill="#E3B76D"/>
<path d="M-841.514 282L605.384 282L605.384 -562.865C561.073 -543.146 515.405 -530.235 469.104 -523.545C367.912 -508.638 264.73 -520.728 165.889 -546.316C162.814 -547.137 159.739 -547.959 156.665 -548.663C51.0411 -576.833 -52.8642 -617.914 -157.674 -656.883L-841.514 -656.883L-841.514 282Z" fill="#E8C476" fill-opacity="0.34"/>
<path d="M172.761 -399.949C169.868 -400.888 166.974 -401.944 164.17 -402.883C-13.2554 -464.505 -187.335 -559.579 -372.538 -610.167C-530.069 -653.126 -688.595 -644.441 -841.514 -598.195L-841.514 282L605.384 282L605.384 -392.789C558.088 -372.131 509.075 -360.276 459.699 -356.52C362.667 -348.773 265.634 -368.492 172.761 -399.949Z" fill="#EACB7B" fill-opacity="0.34"/>
<path d="M605.384 282L605.384 -222.008C555.104 -200.411 502.744 -189.965 450.385 -189.495C357.422 -188.556 266.629 -216.14 179.725 -253.465C177.012 -254.639 174.389 -255.812 171.676 -256.986C5.64473 -329.758 -159.03 -428.471 -336.908 -482.463C-505.743 -533.756 -677.2 -522.84 -841.423 -467.674L-841.423 282L605.384 282Z" fill="#EDD17F" fill-opacity="0.34"/>
<path d="M440.98 -22.4708C352.177 -29.5133 267.443 -63.7868 186.597 -107.098C184.065 -108.389 181.624 -109.798 179.092 -111.089C24.4544 -195.129 -130.816 -297.128 -301.369 -354.877C-481.146 -415.677 -666.168 -402.765 -841.514 -337.505L-841.514 282L605.384 282L605.384 -50.4061C552.029 -27.4006 496.324 -18.128 440.98 -22.4708Z" fill="#EFD884" fill-opacity="0.34"/>
<path d="M-841.514 282L605.384 282L605.384 122.018C549.045 146.549 489.903 154.296 431.575 144.554C346.932 130.351 268.347 88.5658 193.47 39.3857C191.119 37.8598 188.858 36.3339 186.507 34.808C43.2641 -60.3831 -102.601 -165.786 -265.92 -227.173C-456.277 -298.772 -655.497 -284.687 -841.604 -207.689L-841.604 282L-841.514 282Z" fill="#EFDB84" fill-opacity="0.34"/>
<path d="M194.555 180.705C62.7069 74.2461 -73.7536 -34.091 -229.747 -99.4689C-418.387 -178.58 -619.777 -170.833 -806.607 -93.248C-818.182 -88.4356 -829.577 -83.3884 -841.062 -78.1065L-841.062 282L345.395 282C294.753 256.999 247.096 222.608 200.976 185.752C198.806 184.109 196.726 182.348 194.555 180.705Z" fill="#EFDE85" fill-opacity="0.34"/>
<path d="M-841.909 282L154.642 282C47.8425 181.292 -65.5581 88.918 -195.146 28.2352C-368.593 -52.9883 -556.87 -59.4439 -733.211 3.4691C-770.107 16.6151 -806.55 33.0476 -841.999 52.4145L-841.999 282L-841.909 282Z" fill="#F0E085" fill-opacity="0.34"/>
<path d="M-658.707 100.303C-701.391 112.745 -743.351 129.999 -784.045 151.714C-803.668 162.16 -822.93 173.78 -841.83 186.339L-841.83 282L23.2334 282C-33.6478 233.054 -94.0557 190.213 -159.528 155.939C-317.692 72.955 -492.947 51.8275 -658.707 100.303Z" fill="#F0E386" fill-opacity="0.34"/>
</g>
</svg>
