<svg width="533" height="282" viewBox="0 0 533 282" fill="none" xmlns="http://www.w3.org/2000/svg">
<mask id="mask0" mask-type="alpha" maskUnits="userSpaceOnUse" x="0" y="0" width="533" height="282">
<path d="M533 248.215V161.376L497.585 45.0481L435.985 -6.4373e-06H29.1733L0 142.152L279.122 282H371.814H511.192L533 248.215Z" fill="#E3B76D"/>
</mask>
<g mask="url(#mask0)">
<path d="M-300.514 609L1146.38 609L1146.38 -330L-300.514 -330L-300.514 609Z" fill="#E3B76D"/>
<path d="M-300.514 609L1146.38 609L1146.38 -235.865C1102.07 -216.146 1056.4 -203.235 1010.1 -196.545C908.912 -181.638 805.73 -193.728 706.889 -219.316C703.814 -220.137 700.739 -220.959 697.665 -221.663C592.041 -249.833 488.136 -290.914 383.326 -329.883L-300.514 -329.883L-300.514 609Z" fill="#E8C476" fill-opacity="0.34"/>
<path d="M713.761 -72.9488C710.868 -73.8878 707.974 -74.9441 705.17 -75.8831C527.745 -137.505 353.665 -232.579 168.462 -283.167C10.9308 -326.126 -147.595 -317.441 -300.514 -271.195L-300.514 609L1146.38 609L1146.38 -65.789C1099.09 -45.131 1050.07 -33.2761 1000.7 -29.5201C903.667 -21.7733 806.634 -41.4923 713.761 -72.9488Z" fill="#EACB7B" fill-opacity="0.34"/>
<path d="M1146.38 609L1146.38 104.992C1096.1 126.589 1043.74 137.035 991.385 137.505C898.422 138.444 807.629 110.86 720.725 73.5352C718.012 72.3615 715.389 71.1877 712.676 70.014C546.645 -2.75845 381.97 -101.471 204.092 -155.463C35.2569 -206.756 -136.2 -195.84 -300.423 -140.674L-300.423 609L1146.38 609Z" fill="#EDD17F" fill-opacity="0.34"/>
<path d="M981.98 304.529C893.177 297.487 808.443 263.213 727.597 219.902C725.065 218.611 722.624 217.202 720.092 215.911C565.454 131.871 410.184 29.8719 239.631 -27.8765C59.8541 -88.6767 -125.168 -75.7655 -300.514 -10.505L-300.514 609L1146.38 609L1146.38 276.594C1093.03 299.599 1037.32 308.872 981.98 304.529Z" fill="#EFD884" fill-opacity="0.34"/>
<path d="M-300.514 609L1146.38 609L1146.38 449.018C1090.05 473.549 1030.9 481.296 972.575 471.554C887.932 457.351 809.347 415.566 734.47 366.386C732.119 364.86 729.858 363.334 727.507 361.808C584.264 266.617 438.399 161.214 275.08 99.8271C84.7227 28.2284 -114.497 42.3134 -300.604 119.311L-300.604 609L-300.514 609Z" fill="#EFDB84" fill-opacity="0.34"/>
<path d="M735.555 507.705C603.707 401.246 467.246 292.909 311.253 227.531C122.613 148.42 -78.7766 156.167 -265.607 233.752C-277.182 238.564 -288.577 243.612 -300.062 248.893L-300.062 609L886.395 609C835.753 583.999 788.096 549.608 741.976 512.752C739.806 511.109 737.726 509.348 735.555 507.705Z" fill="#EFDE85" fill-opacity="0.34"/>
<path d="M-300.909 609L695.642 609C588.842 508.292 475.442 415.918 345.854 355.235C172.407 274.012 -15.8703 267.556 -192.211 330.469C-229.107 343.615 -265.55 360.048 -300.999 379.414L-300.999 609L-300.909 609Z" fill="#F0E085" fill-opacity="0.34"/>
</g>
</svg>
