<svg width="1064" height="250" viewBox="0 0 1064 250" fill="none" xmlns="http://www.w3.org/2000/svg">
<rect x="3" y="3" width="244" height="244" rx="4" stroke="#E9C58A" stroke-width="6"/>
<rect x="278" y="3" width="244" height="244" rx="4" stroke="#E9C58A" stroke-width="6"/>
<rect x="548" y="3" width="244" height="244" rx="4" stroke="#E9C58A" stroke-width="6"/>
<rect x="817" y="3" width="244" height="244" rx="4" stroke="#E9C58A" stroke-width="6"/>
<path d="M121 86.7305C121 88.5046 120.528 90.0833 119.584 91.4668C118.656 92.8503 117.395 93.9326 115.8 94.7139C117.655 95.5114 119.12 96.6751 120.194 98.2051C121.285 99.735 121.83 101.468 121.83 103.405C121.83 106.481 120.788 108.931 118.705 110.754C116.638 112.577 113.912 113.488 110.526 113.488C107.108 113.488 104.366 112.577 102.299 110.754C100.248 108.915 99.2227 106.465 99.2227 103.405C99.2227 101.485 99.7435 99.7513 100.785 98.2051C101.843 96.6589 103.3 95.487 105.155 94.6895C103.576 93.9082 102.331 92.8258 101.42 91.4424C100.508 90.0589 100.053 88.4883 100.053 86.7305C100.053 83.7357 101.013 81.3594 102.934 79.6016C104.854 77.8438 107.385 76.9648 110.526 76.9648C113.651 76.9648 116.174 77.8438 118.095 79.6016C120.032 81.3594 121 83.7357 121 86.7305ZM117.313 103.308C117.313 101.322 116.679 99.7025 115.409 98.4492C114.156 97.196 112.512 96.5693 110.478 96.5693C108.443 96.5693 106.807 97.1878 105.57 98.4248C104.35 99.6618 103.739 101.289 103.739 103.308C103.739 105.326 104.333 106.913 105.521 108.068C106.726 109.224 108.394 109.802 110.526 109.802C112.642 109.802 114.302 109.224 115.507 108.068C116.711 106.896 117.313 105.31 117.313 103.308ZM110.526 80.6758C108.752 80.6758 107.312 81.2292 106.205 82.3359C105.115 83.4264 104.569 84.9157 104.569 86.8037C104.569 88.6104 105.106 90.0752 106.181 91.1982C107.271 92.305 108.72 92.8584 110.526 92.8584C112.333 92.8584 113.773 92.305 114.848 91.1982C115.938 90.0752 116.483 88.6104 116.483 86.8037C116.483 84.9971 115.922 83.5241 114.799 82.3848C113.676 81.2454 112.252 80.6758 110.526 80.6758Z" fill="black"/>
<path d="M151.298 113H128.007V109.753L140.312 96.0811C142.134 94.014 143.388 92.3376 144.071 91.0518C144.771 89.7497 145.121 88.4069 145.121 87.0234C145.121 85.168 144.56 83.6462 143.437 82.458C142.313 81.2699 140.816 80.6758 138.944 80.6758C136.698 80.6758 134.949 81.3187 133.695 82.6045C132.458 83.874 131.84 85.6481 131.84 87.9268H127.323C127.323 84.6553 128.373 82.0104 130.473 79.9922C132.589 77.974 135.412 76.9648 138.944 76.9648C142.248 76.9648 144.861 77.8356 146.781 79.5771C148.702 81.3024 149.662 83.6055 149.662 86.4863C149.662 89.9857 147.432 94.1523 142.973 98.9863L133.451 109.313H151.298V113Z" fill="black"/>
<path d="M379.138 79.9922L365.026 113H360.485L374.548 81.1641H356.701V77.4531H379.138V79.9922Z" fill="black"/>
<path d="M386.071 95.1777L387.878 77.4531H406.091V81.6279H391.711L390.637 91.3203C392.378 90.2949 394.356 89.7822 396.569 89.7822C399.808 89.7822 402.38 90.8564 404.284 93.0049C406.188 95.137 407.141 98.026 407.141 101.672C407.141 105.334 406.148 108.223 404.162 110.339C402.193 112.438 399.434 113.488 395.886 113.488C392.744 113.488 390.181 112.618 388.195 110.876C386.21 109.134 385.078 106.726 384.802 103.649H389.074C389.351 105.684 390.075 107.222 391.247 108.264C392.419 109.289 393.965 109.802 395.886 109.802C397.985 109.802 399.629 109.086 400.817 107.653C402.022 106.221 402.624 104.243 402.624 101.721C402.624 99.3444 401.973 97.4401 400.671 96.0078C399.385 94.5592 397.668 93.835 395.52 93.835C393.55 93.835 392.004 94.2663 390.881 95.1289L389.685 96.1055L386.071 95.1777Z" fill="black"/>
<path d="M411.682 84.2891C411.682 82.1569 412.357 80.3991 413.708 79.0156C415.075 77.6322 416.825 76.9404 418.957 76.9404C421.122 76.9404 422.871 77.6403 424.206 79.04C425.557 80.4235 426.232 82.222 426.232 84.4355V86.1689C426.232 88.3174 425.549 90.0752 424.182 91.4424C422.831 92.7933 421.105 93.4688 419.006 93.4688C416.89 93.4688 415.14 92.7933 413.757 91.4424C412.373 90.0752 411.682 88.2604 411.682 85.998V84.2891ZM415.051 86.1689C415.051 87.4385 415.409 88.4883 416.125 89.3184C416.841 90.1322 417.801 90.5391 419.006 90.5391C420.161 90.5391 421.089 90.1403 421.789 89.3428C422.505 88.5452 422.863 87.4548 422.863 86.0713V84.2891C422.863 83.0195 422.513 81.9697 421.813 81.1396C421.114 80.3096 420.161 79.8945 418.957 79.8945C417.753 79.8945 416.8 80.3096 416.101 81.1396C415.401 81.9697 415.051 83.0521 415.051 84.3867V86.1689ZM428.991 104.284C428.991 102.152 429.667 100.402 431.018 99.0352C432.385 97.6517 434.134 96.96 436.267 96.96C438.399 96.96 440.148 97.6436 441.516 99.0107C442.883 100.378 443.566 102.193 443.566 104.455V106.188C443.566 108.321 442.883 110.078 441.516 111.462C440.165 112.829 438.431 113.513 436.315 113.513C434.2 113.513 432.45 112.837 431.066 111.486C429.683 110.119 428.991 108.304 428.991 106.042V104.284ZM432.36 106.188C432.36 107.474 432.718 108.532 433.435 109.362C434.151 110.176 435.111 110.583 436.315 110.583C437.487 110.583 438.423 110.184 439.123 109.387C439.823 108.573 440.173 107.474 440.173 106.091V104.284C440.173 102.998 439.815 101.949 439.099 101.135C438.399 100.321 437.455 99.9141 436.267 99.9141C435.111 99.9141 434.167 100.321 433.435 101.135C432.718 101.932 432.36 103.015 432.36 104.382V106.188ZM420.031 110.314L417.468 108.703L434.826 80.9199L437.39 82.5312L420.031 110.314Z" fill="black"/>
<path d="M644.548 77.4287V81.2617H643.718C640.202 81.3268 637.403 82.3685 635.319 84.3867C633.236 86.4049 632.032 89.2451 631.706 92.9072C633.578 90.7588 636.133 89.6846 639.372 89.6846C642.465 89.6846 644.93 90.7751 646.77 92.9561C648.625 95.137 649.553 97.9528 649.553 101.403C649.553 105.065 648.552 107.995 646.55 110.192C644.564 112.39 641.895 113.488 638.542 113.488C635.14 113.488 632.382 112.186 630.266 109.582C628.15 106.962 627.092 103.592 627.092 99.4746V97.7412C627.092 91.1982 628.483 86.2015 631.267 82.751C634.066 79.2842 638.225 77.5101 643.742 77.4287H644.548ZM638.615 93.4443C637.069 93.4443 635.645 93.9082 634.343 94.8359C633.041 95.7637 632.137 96.9274 631.633 98.3271V99.9873C631.633 102.917 632.292 105.277 633.61 107.067C634.929 108.858 636.573 109.753 638.542 109.753C640.576 109.753 642.172 109.004 643.327 107.507C644.499 106.009 645.085 104.048 645.085 101.623C645.085 99.1816 644.491 97.2122 643.303 95.7148C642.131 94.2012 640.568 93.4443 638.615 93.4443Z" fill="black"/>
<path d="M677.678 97.8389C677.678 103.129 676.774 107.059 674.968 109.631C673.161 112.202 670.337 113.488 666.496 113.488C662.704 113.488 659.896 112.235 658.073 109.729C656.25 107.206 655.306 103.446 655.241 98.4492V92.4189C655.241 87.1943 656.145 83.3125 657.951 80.7734C659.758 78.2344 662.59 76.9648 666.447 76.9648C670.272 76.9648 673.088 78.1937 674.895 80.6514C676.701 83.0928 677.629 86.8688 677.678 91.9795V97.8389ZM673.161 91.6621C673.161 87.8372 672.624 85.054 671.55 83.3125C670.476 81.5547 668.775 80.6758 666.447 80.6758C664.136 80.6758 662.451 81.5465 661.394 83.2881C660.336 85.0296 659.79 87.707 659.758 91.3203V98.5469C659.758 102.388 660.311 105.228 661.418 107.067C662.541 108.89 664.234 109.802 666.496 109.802C668.726 109.802 670.378 108.939 671.452 107.214C672.543 105.489 673.112 102.771 673.161 99.0596V91.6621Z" fill="black"/>
<path d="M683.562 84.2891C683.562 82.1569 684.237 80.3991 685.588 79.0156C686.955 77.6322 688.705 76.9404 690.837 76.9404C693.002 76.9404 694.751 77.6403 696.086 79.04C697.437 80.4235 698.112 82.222 698.112 84.4355V86.1689C698.112 88.3174 697.429 90.0752 696.062 91.4424C694.711 92.7933 692.985 93.4688 690.886 93.4688C688.77 93.4688 687.02 92.7933 685.637 91.4424C684.253 90.0752 683.562 88.2604 683.562 85.998V84.2891ZM686.931 86.1689C686.931 87.4385 687.289 88.4883 688.005 89.3184C688.721 90.1322 689.681 90.5391 690.886 90.5391C692.041 90.5391 692.969 90.1403 693.669 89.3428C694.385 88.5452 694.743 87.4548 694.743 86.0713V84.2891C694.743 83.0195 694.393 81.9697 693.693 81.1396C692.993 80.3096 692.041 79.8945 690.837 79.8945C689.632 79.8945 688.68 80.3096 687.98 81.1396C687.281 81.9697 686.931 83.0521 686.931 84.3867V86.1689ZM700.871 104.284C700.871 102.152 701.547 100.402 702.897 99.0352C704.265 97.6517 706.014 96.96 708.146 96.96C710.279 96.96 712.028 97.6436 713.396 99.0107C714.763 100.378 715.446 102.193 715.446 104.455V106.188C715.446 108.321 714.763 110.078 713.396 111.462C712.045 112.829 710.311 113.513 708.195 113.513C706.079 113.513 704.33 112.837 702.946 111.486C701.563 110.119 700.871 108.304 700.871 106.042V104.284ZM704.24 106.188C704.24 107.474 704.598 108.532 705.314 109.362C706.031 110.176 706.991 110.583 708.195 110.583C709.367 110.583 710.303 110.184 711.003 109.387C711.703 108.573 712.053 107.474 712.053 106.091V104.284C712.053 102.998 711.695 101.949 710.979 101.135C710.279 100.321 709.335 99.9141 708.146 99.9141C706.991 99.9141 706.047 100.321 705.314 101.135C704.598 101.932 704.24 103.015 704.24 104.382V106.188ZM691.911 110.314L689.348 108.703L706.706 80.9199L709.27 82.5312L691.911 110.314Z" fill="black"/>
<path d="M914.146 101.062H919.078V104.748H914.146V113H909.605V104.748H893.419V102.087L909.337 77.4531H914.146V101.062ZM898.546 101.062H909.605V83.6299L909.068 84.6064L898.546 101.062Z" fill="black"/>
<path d="M945.934 97.8389C945.934 103.129 945.03 107.059 943.224 109.631C941.417 112.202 938.593 113.488 934.752 113.488C930.96 113.488 928.152 112.235 926.329 109.729C924.506 107.206 923.562 103.446 923.497 98.4492V92.4189C923.497 87.1943 924.4 83.3125 926.207 80.7734C928.014 78.2344 930.846 76.9648 934.703 76.9648C938.528 76.9648 941.344 78.1937 943.15 80.6514C944.957 83.0928 945.885 86.8688 945.934 91.9795V97.8389ZM941.417 91.6621C941.417 87.8372 940.88 85.054 939.806 83.3125C938.731 81.5547 937.031 80.6758 934.703 80.6758C932.392 80.6758 930.707 81.5465 929.649 83.2881C928.591 85.0296 928.046 87.707 928.014 91.3203V98.5469C928.014 102.388 928.567 105.228 929.674 107.067C930.797 108.89 932.49 109.802 934.752 109.802C936.982 109.802 938.634 108.939 939.708 107.214C940.799 105.489 941.368 102.771 941.417 99.0596V91.6621Z" fill="black"/>
<path d="M951.817 84.2891C951.817 82.1569 952.493 80.3991 953.844 79.0156C955.211 77.6322 956.961 76.9404 959.093 76.9404C961.257 76.9404 963.007 77.6403 964.342 79.04C965.693 80.4235 966.368 82.222 966.368 84.4355V86.1689C966.368 88.3174 965.685 90.0752 964.317 91.4424C962.966 92.7933 961.241 93.4688 959.142 93.4688C957.026 93.4688 955.276 92.7933 953.893 91.4424C952.509 90.0752 951.817 88.2604 951.817 85.998V84.2891ZM955.187 86.1689C955.187 87.4385 955.545 88.4883 956.261 89.3184C956.977 90.1322 957.937 90.5391 959.142 90.5391C960.297 90.5391 961.225 90.1403 961.925 89.3428C962.641 88.5452 962.999 87.4548 962.999 86.0713V84.2891C962.999 83.0195 962.649 81.9697 961.949 81.1396C961.249 80.3096 960.297 79.8945 959.093 79.8945C957.888 79.8945 956.936 80.3096 956.236 81.1396C955.536 81.9697 955.187 83.0521 955.187 84.3867V86.1689ZM969.127 104.284C969.127 102.152 969.802 100.402 971.153 99.0352C972.521 97.6517 974.27 96.96 976.402 96.96C978.535 96.96 980.284 97.6436 981.651 99.0107C983.019 100.378 983.702 102.193 983.702 104.455V106.188C983.702 108.321 983.019 110.078 981.651 111.462C980.3 112.829 978.567 113.513 976.451 113.513C974.335 113.513 972.586 112.837 971.202 111.486C969.819 110.119 969.127 108.304 969.127 106.042V104.284ZM972.496 106.188C972.496 107.474 972.854 108.532 973.57 109.362C974.286 110.176 975.247 110.583 976.451 110.583C977.623 110.583 978.559 110.184 979.259 109.387C979.959 108.573 980.309 107.474 980.309 106.091V104.284C980.309 102.998 979.951 101.949 979.234 101.135C978.535 100.321 977.59 99.9141 976.402 99.9141C975.247 99.9141 974.303 100.321 973.57 101.135C972.854 101.932 972.496 103.015 972.496 104.382V106.188ZM960.167 110.314L957.604 108.703L974.962 80.9199L977.525 82.5312L960.167 110.314Z" fill="black"/>
<g opacity="0.6">
<path d="M31.4811 158H34.1211V140H40.3011V137.78H25.3311V140H31.4811V158Z" fill="black"/>
<path d="M46.4745 143.18C42.4845 143.18 39.2745 146.03 39.2745 150.86C39.2745 155.45 42.3345 158.33 46.2345 158.33C49.7145 158.33 53.4645 155.99 53.4645 150.62C53.4645 146.21 50.6445 143.18 46.4745 143.18ZM46.4145 145.16C49.5345 145.16 50.7645 148.25 50.7645 150.71C50.7645 153.98 48.8745 156.35 46.3545 156.35C43.7745 156.35 41.9745 153.95 41.9745 150.77C41.9745 148.04 43.3245 145.16 46.4145 145.16Z" fill="black"/>
<path d="M57.3893 140.78V143.48H55.1393V145.49H57.3893V153.41C57.3893 155.12 57.6893 156.41 58.4093 157.22C59.0393 157.91 60.0293 158.33 61.2593 158.33C62.2793 158.33 63.0893 158.15 63.5993 157.97L63.4793 155.96C63.0893 156.08 62.6693 156.14 61.9493 156.14C60.4793 156.14 59.9693 155.12 59.9693 153.32V145.49H63.7493V143.48H59.9693V140L57.3893 140.78Z" fill="black"/>
<path d="M76.921 149.09C76.921 146.21 75.841 143.18 71.401 143.18C69.571 143.18 67.801 143.69 66.601 144.44L67.201 146.21C68.221 145.52 69.631 145.13 71.011 145.13C73.981 145.1 74.311 147.29 74.311 148.46V148.76C68.701 148.73 65.581 150.65 65.581 154.16C65.581 156.26 67.081 158.33 70.021 158.33C72.091 158.33 73.651 157.31 74.461 156.17H74.551L74.761 158H77.131C76.981 157.01 76.921 155.78 76.921 154.52V149.09ZM74.371 153.11C74.371 153.35 74.341 153.65 74.251 153.95C73.831 155.18 72.601 156.38 70.681 156.38C69.361 156.38 68.221 155.6 68.221 153.86C68.221 151.04 71.491 150.53 74.371 150.59V153.11Z" fill="black"/>
<path d="M81.1936 158H83.8336V136.7H81.1936V158Z" fill="black"/>
<path d="M94.7309 158H97.3409V149.24H99.8009C102.171 149.33 103.281 150.38 103.881 153.17C104.421 155.69 104.871 157.4 105.201 158H107.901C107.481 157.22 107.001 155.27 106.341 152.45C105.861 150.35 104.931 148.91 103.401 148.37V148.28C105.501 147.56 107.181 145.79 107.181 143.15C107.181 141.56 106.581 140.18 105.591 139.28C104.361 138.17 102.531 137.63 99.7409 137.63C97.9709 137.63 96.0509 137.81 94.7309 138.05V158ZM97.3409 139.88C97.7909 139.76 98.6609 139.67 99.9209 139.67C102.681 139.67 104.571 140.81 104.571 143.42C104.571 145.73 102.801 147.26 100.011 147.26H97.3409V139.88Z" fill="black"/>
<path d="M122.571 151.22C122.631 150.92 122.661 150.53 122.661 149.99C122.661 147.32 121.431 143.18 116.661 143.18C112.431 143.18 109.851 146.6 109.851 150.98C109.851 155.36 112.521 158.33 116.991 158.33C119.301 158.33 120.921 157.82 121.851 157.4L121.371 155.51C120.411 155.93 119.241 156.26 117.351 156.26C114.681 156.26 112.431 154.79 112.371 151.22H122.571ZM112.401 149.33C112.611 147.5 113.751 145.07 116.451 145.07C119.421 145.07 120.141 147.68 120.111 149.33H112.401Z" fill="black"/>
<path d="M124.94 157.31C125.96 157.91 127.43 158.33 129.02 158.33C132.41 158.33 134.42 156.53 134.42 153.95C134.42 151.79 133.1 150.53 130.61 149.6C128.72 148.85 127.88 148.31 127.88 147.11C127.88 146.03 128.72 145.13 130.28 145.13C131.63 145.13 132.68 145.64 133.25 146L133.88 144.08C133.1 143.57 131.81 143.18 130.34 143.18C127.25 143.18 125.33 145.1 125.33 147.44C125.33 149.18 126.56 150.59 129.2 151.55C131.12 152.27 131.87 152.93 131.87 154.19C131.87 155.42 130.97 156.35 129.08 156.35C127.76 156.35 126.38 155.81 125.57 155.33L124.94 157.31Z" fill="black"/>
<path d="M137.824 163.94H140.434V156.05H140.494C141.364 157.49 143.044 158.33 144.964 158.33C148.384 158.33 151.594 155.75 151.594 150.53C151.594 146.15 148.954 143.18 145.414 143.18C143.044 143.18 141.304 144.2 140.254 145.97H140.194L140.044 143.48H137.704C137.764 144.86 137.824 146.36 137.824 148.22V163.94ZM140.434 149.57C140.434 149.24 140.524 148.85 140.614 148.52C141.094 146.54 142.804 145.28 144.604 145.28C147.394 145.28 148.924 147.77 148.924 150.65C148.924 153.98 147.304 156.26 144.514 156.26C142.624 156.26 141.034 155 140.554 153.17C140.464 152.84 140.434 152.48 140.434 152.09V149.57Z" fill="black"/>
<path d="M161.055 143.18C157.065 143.18 153.855 146.03 153.855 150.86C153.855 155.45 156.915 158.33 160.815 158.33C164.295 158.33 168.045 155.99 168.045 150.62C168.045 146.21 165.225 143.18 161.055 143.18ZM160.995 145.16C164.115 145.16 165.345 148.25 165.345 150.71C165.345 153.98 163.455 156.35 160.935 156.35C158.355 156.35 156.555 153.95 156.555 150.77C156.555 148.04 157.905 145.16 160.995 145.16Z" fill="black"/>
<path d="M171.369 158H174.009V149.27C174.009 148.82 174.069 148.37 174.189 148.04C174.669 146.57 176.019 145.34 177.729 145.34C180.219 145.34 181.089 147.29 181.089 149.63V158H183.729V149.36C183.729 144.38 180.609 143.18 178.599 143.18C176.199 143.18 174.519 144.53 173.799 145.88H173.739L173.589 143.48H171.249C171.339 144.68 171.369 145.88 171.369 147.41V158Z" fill="black"/>
<path d="M187.02 157.31C188.04 157.91 189.51 158.33 191.1 158.33C194.49 158.33 196.5 156.53 196.5 153.95C196.5 151.79 195.18 150.53 192.69 149.6C190.8 148.85 189.96 148.31 189.96 147.11C189.96 146.03 190.8 145.13 192.36 145.13C193.71 145.13 194.76 145.64 195.33 146L195.96 144.08C195.18 143.57 193.89 143.18 192.42 143.18C189.33 143.18 187.41 145.1 187.41 147.44C187.41 149.18 188.64 150.59 191.28 151.55C193.2 152.27 193.95 152.93 193.95 154.19C193.95 155.42 193.05 156.35 191.16 156.35C189.84 156.35 188.46 155.81 187.65 155.33L187.02 157.31Z" fill="black"/>
<path d="M211.575 151.22C211.635 150.92 211.665 150.53 211.665 149.99C211.665 147.32 210.435 143.18 205.665 143.18C201.435 143.18 198.855 146.6 198.855 150.98C198.855 155.36 201.525 158.33 205.995 158.33C208.305 158.33 209.925 157.82 210.855 157.4L210.375 155.51C209.415 155.93 208.245 156.26 206.355 156.26C203.685 156.26 201.435 154.79 201.375 151.22H211.575ZM201.405 149.33C201.615 147.5 202.755 145.07 205.455 145.07C208.425 145.07 209.145 147.68 209.115 149.33H201.405Z" fill="black"/>
<path d="M213.944 157.31C214.964 157.91 216.434 158.33 218.024 158.33C221.414 158.33 223.424 156.53 223.424 153.95C223.424 151.79 222.104 150.53 219.614 149.6C217.724 148.85 216.884 148.31 216.884 147.11C216.884 146.03 217.724 145.13 219.284 145.13C220.634 145.13 221.684 145.64 222.254 146L222.884 144.08C222.104 143.57 220.814 143.18 219.344 143.18C216.254 143.18 214.334 145.1 214.334 147.44C214.334 149.18 215.564 150.59 218.204 151.55C220.124 152.27 220.874 152.93 220.874 154.19C220.874 155.42 219.974 156.35 218.084 156.35C216.764 156.35 215.384 155.81 214.574 155.33L213.944 157.31Z" fill="black"/>
<path d="M346.187 151.64L348.347 158H351.137L344.237 137.78H341.117L334.217 158H336.917L339.017 151.64H346.187ZM339.557 149.6L341.537 143.75C341.957 142.52 342.257 141.26 342.557 140.09H342.617C342.917 141.26 343.217 142.46 343.667 143.78L345.677 149.6H339.557Z" fill="black"/>
<path d="M366.094 147.44C366.094 145.7 366.124 144.5 366.214 143.48H363.874L363.784 145.67H363.724C363.064 144.47 361.714 143.18 359.194 143.18C355.834 143.18 352.624 145.94 352.624 150.86C352.624 154.88 355.204 157.94 358.804 157.94C361.054 157.94 362.644 156.86 363.424 155.51H363.484V157.1C363.484 160.79 361.504 162.2 358.804 162.2C357.004 162.2 355.504 161.66 354.544 161.03L353.884 163.07C355.054 163.85 356.974 164.27 358.714 164.27C360.544 164.27 362.584 163.82 364.024 162.53C365.404 161.24 366.094 159.23 366.094 155.87V147.44ZM363.454 151.82C363.454 152.27 363.394 152.78 363.244 153.23C362.704 154.91 361.234 155.93 359.584 155.93C356.764 155.93 355.294 153.56 355.294 150.71C355.294 147.35 357.094 145.22 359.614 145.22C361.564 145.22 362.824 146.48 363.304 148.04C363.424 148.37 363.454 148.76 363.454 149.21V151.82Z" fill="black"/>
<path d="M382.102 151.22C382.162 150.92 382.192 150.53 382.192 149.99C382.192 147.32 380.962 143.18 376.192 143.18C371.962 143.18 369.382 146.6 369.382 150.98C369.382 155.36 372.052 158.33 376.522 158.33C378.832 158.33 380.452 157.82 381.382 157.4L380.902 155.51C379.942 155.93 378.772 156.26 376.882 156.26C374.212 156.26 371.962 154.79 371.902 151.22H382.102ZM371.932 149.33C372.142 147.5 373.282 145.07 375.982 145.07C378.952 145.07 379.672 147.68 379.642 149.33H371.932Z" fill="black"/>
<path d="M384.471 157.31C385.491 157.91 386.961 158.33 388.551 158.33C391.941 158.33 393.951 156.53 393.951 153.95C393.951 151.79 392.631 150.53 390.141 149.6C388.251 148.85 387.411 148.31 387.411 147.11C387.411 146.03 388.251 145.13 389.811 145.13C391.161 145.13 392.211 145.64 392.781 146L393.411 144.08C392.631 143.57 391.341 143.18 389.871 143.18C386.781 143.18 384.861 145.1 384.861 147.44C384.861 149.18 386.091 150.59 388.731 151.55C390.651 152.27 391.401 152.93 391.401 154.19C391.401 155.42 390.501 156.35 388.611 156.35C387.291 156.35 385.911 155.81 385.101 155.33L384.471 157.31Z" fill="black"/>
<path d="M414.063 158V155.81H405.333V155.75L406.863 154.31C410.973 150.35 413.583 147.44 413.583 143.84C413.583 141.05 411.813 138.17 407.613 138.17C405.393 138.17 403.443 139.04 402.123 140.15L402.963 142.01C403.863 141.26 405.333 140.36 407.103 140.36C410.013 140.36 410.943 142.19 410.943 144.17C410.943 147.11 408.663 149.63 403.683 154.37L401.613 156.38V158H414.063Z" fill="black"/>
<path d="M427.121 138.5H417.791L416.531 147.86C417.251 147.77 418.121 147.68 419.261 147.68C423.131 147.68 424.841 149.45 424.841 151.97C424.871 154.58 422.711 156.2 420.251 156.2C418.451 156.2 416.861 155.6 416.051 155.12L415.391 157.13C416.351 157.73 418.121 158.33 420.251 158.33C424.481 158.33 427.511 155.48 427.511 151.67C427.511 149.24 426.251 147.53 424.721 146.69C423.521 145.94 422.051 145.64 420.521 145.64C419.801 145.64 419.381 145.67 418.931 145.73L419.681 140.72H427.121V138.5Z" fill="black"/>
<path d="M429.64 148.94V150.86H437.05V148.94H429.64Z" fill="black"/>
<path d="M438.149 157.01C439.109 157.64 441.029 158.33 443.219 158.33C447.869 158.33 450.329 155.6 450.329 152.48C450.299 149.75 448.379 147.95 445.979 147.5V147.44C448.349 146.57 449.579 144.86 449.579 142.82C449.579 140.45 447.839 138.17 443.999 138.17C441.899 138.17 439.919 138.92 438.869 139.67L439.589 141.59C440.429 140.99 441.929 140.3 443.489 140.3C445.919 140.3 446.909 141.68 446.909 143.24C446.909 145.55 444.479 146.54 442.559 146.54H441.089V148.52H442.559C445.109 148.52 447.569 149.69 447.599 152.42C447.629 154.07 446.549 156.2 443.189 156.2C441.329 156.2 439.619 155.45 438.869 155L438.149 157.01Z" fill="black"/>
<path d="M463.325 158V152.66H466.055V150.62H463.325V138.5H460.475L451.775 150.95V152.66H460.835V158H463.325ZM454.445 150.62V150.56L459.215 143.93C459.755 143.03 460.235 142.19 460.835 141.05H460.925C460.865 142.07 460.835 143.09 460.835 144.11V150.62H454.445Z" fill="black"/>
<path d="M627.589 158H630.229V148.85H637.849V146.69H630.229V139.97H638.479V137.78H627.589V158Z" fill="black"/>
<path d="M652.88 151.22C652.94 150.92 652.97 150.53 652.97 149.99C652.97 147.32 651.74 143.18 646.97 143.18C642.74 143.18 640.16 146.6 640.16 150.98C640.16 155.36 642.83 158.33 647.3 158.33C649.61 158.33 651.23 157.82 652.16 157.4L651.68 155.51C650.72 155.93 649.55 156.26 647.66 156.26C644.99 156.26 642.74 154.79 642.68 151.22H652.88ZM642.71 149.33C642.92 147.5 644.06 145.07 646.76 145.07C649.73 145.07 650.45 147.68 650.42 149.33H642.71Z" fill="black"/>
<path d="M656.24 158H658.82V149.27C658.82 148.82 658.88 148.34 659.03 147.98C659.45 146.66 660.68 145.34 662.3 145.34C664.31 145.34 665.33 146.99 665.33 149.3V158H667.91V149.03C667.91 148.55 668 148.1 668.12 147.71C668.6 146.45 669.74 145.34 671.27 145.34C673.37 145.34 674.42 146.99 674.42 149.81V158H677V149.48C677 144.44 674.15 143.18 672.2 143.18C670.82 143.18 669.89 143.54 669.02 144.2C668.42 144.65 667.82 145.25 667.37 146.09H667.31C666.68 144.38 665.18 143.18 663.23 143.18C660.8 143.18 659.45 144.47 658.64 145.85H658.55L658.43 143.48H656.12C656.18 144.68 656.24 145.88 656.24 147.41V158Z" fill="black"/>
<path d="M691.459 149.09C691.459 146.21 690.379 143.18 685.939 143.18C684.109 143.18 682.339 143.69 681.139 144.44L681.739 146.21C682.759 145.52 684.169 145.13 685.549 145.13C688.519 145.1 688.849 147.29 688.849 148.46V148.76C683.239 148.73 680.119 150.65 680.119 154.16C680.119 156.26 681.619 158.33 684.559 158.33C686.629 158.33 688.189 157.31 688.999 156.17H689.089L689.299 158H691.669C691.519 157.01 691.459 155.78 691.459 154.52V149.09ZM688.909 153.11C688.909 153.35 688.879 153.65 688.789 153.95C688.369 155.18 687.139 156.38 685.219 156.38C683.899 156.38 682.759 155.6 682.759 153.86C682.759 151.04 686.029 150.53 688.909 150.59V153.11Z" fill="black"/>
<path d="M695.732 158H698.372V136.7H695.732V158Z" fill="black"/>
<path d="M714.492 151.22C714.552 150.92 714.582 150.53 714.582 149.99C714.582 147.32 713.352 143.18 708.582 143.18C704.352 143.18 701.772 146.6 701.772 150.98C701.772 155.36 704.442 158.33 708.912 158.33C711.222 158.33 712.842 157.82 713.772 157.4L713.292 155.51C712.332 155.93 711.162 156.26 709.272 156.26C706.602 156.26 704.352 154.79 704.292 151.22H714.492ZM704.322 149.33C704.532 147.5 705.672 145.07 708.372 145.07C711.342 145.07 712.062 147.68 712.032 149.33H704.322Z" fill="black"/>
<path d="M928.86 158H931.44L930.18 137.78H926.85L923.25 147.56C922.35 150.11 921.63 152.33 921.09 154.37H921.03C920.49 152.27 919.83 150.05 918.99 147.56L915.54 137.78H912.21L910.8 158H913.29L913.83 149.33C914.01 146.27 914.16 142.91 914.22 140.39H914.28C914.85 142.79 915.63 145.37 916.59 148.25L919.89 157.88H921.87L925.44 148.07C926.46 145.28 927.27 142.73 927.99 140.39H928.05C928.05 142.88 928.23 146.3 928.38 149.12L928.86 158Z" fill="black"/>
<path d="M945.737 149.09C945.737 146.21 944.657 143.18 940.217 143.18C938.387 143.18 936.617 143.69 935.417 144.44L936.017 146.21C937.037 145.52 938.447 145.13 939.827 145.13C942.797 145.1 943.127 147.29 943.127 148.46V148.76C937.517 148.73 934.397 150.65 934.397 154.16C934.397 156.26 935.897 158.33 938.837 158.33C940.907 158.33 942.467 157.31 943.277 156.17H943.367L943.577 158H945.947C945.797 157.01 945.737 155.78 945.737 154.52V149.09ZM943.187 153.11C943.187 153.35 943.157 153.65 943.067 153.95C942.647 155.18 941.417 156.38 939.497 156.38C938.177 156.38 937.037 155.6 937.037 153.86C937.037 151.04 940.307 150.53 943.187 150.59V153.11Z" fill="black"/>
<path d="M950.01 158H952.65V136.7H950.01V158Z" fill="black"/>
<path d="M968.77 151.22C968.83 150.92 968.86 150.53 968.86 149.99C968.86 147.32 967.63 143.18 962.86 143.18C958.63 143.18 956.05 146.6 956.05 150.98C956.05 155.36 958.72 158.33 963.19 158.33C965.5 158.33 967.12 157.82 968.05 157.4L967.57 155.51C966.61 155.93 965.44 156.26 963.55 156.26C960.88 156.26 958.63 154.79 958.57 151.22H968.77ZM958.6 149.33C958.81 147.5 959.95 145.07 962.65 145.07C965.62 145.07 966.34 147.68 966.31 149.33H958.6Z" fill="black"/>
</g>
</svg>
