<svg width="26" height="25" viewBox="0 0 26 25" fill="none" xmlns="http://www.w3.org/2000/svg">
<path d="M15.0421 0C15.0556 0.0180278 15.0658 0.0473232 15.0827 0.0529569C15.175 0.0928899 15.2633 0.141561 15.3463 0.198306C15.3666 0.207232 15.3852 0.219411 15.4015 0.234361C15.5439 0.364458 15.6709 0.510376 15.7801 0.669282C15.8302 0.737255 15.8578 0.819206 15.859 0.903645C15.859 0.992657 15.8646 1.0828 15.859 1.17068C15.841 1.40279 15.8996 1.63152 15.8883 1.86475C15.8507 1.91433 15.8305 1.97493 15.8308 2.03715C15.8316 2.06393 15.8262 2.09053 15.8151 2.11489C15.8009 2.15111 15.8009 2.19135 15.8151 2.22757C15.8592 2.37347 15.8719 2.52709 15.8522 2.67826C15.8162 2.76727 15.8421 2.86643 15.7734 2.97009C15.6968 3.03995 15.601 3.13459 15.4962 3.21684C15.4672 3.24486 15.4327 3.26655 15.3949 3.28051C15.357 3.29448 15.3167 3.30042 15.2765 3.29797C15.2296 3.29515 15.1825 3.29515 15.1356 3.29797C15.0861 3.33628 15.0365 3.37571 14.9858 3.41064C14.7914 3.536 14.579 3.63099 14.3559 3.69233C14.2218 3.73289 14.0855 3.76557 13.9526 3.805C13.9114 3.81776 13.8731 3.83843 13.8399 3.86585C13.7351 3.95373 13.6337 4.04613 13.53 4.13739L13.4805 4.02472C13.3531 4.06641 13.2269 4.11147 13.0985 4.14978C12.8562 4.22077 12.6207 4.31091 12.3796 4.38415C12.2332 4.42696 12.0889 4.47992 11.9413 4.51936C11.8109 4.55342 11.6823 4.59404 11.556 4.64104C11.4828 4.66488 11.4039 4.66488 11.3306 4.64104C11.272 4.62189 11.2123 4.63316 11.1605 4.61062C11.0926 4.57927 11.0264 4.54429 10.9622 4.50583H10.6028C10.6309 4.64668 10.6884 4.77625 10.7087 4.91935C10.7323 5.0816 10.7616 5.24498 10.7954 5.40497C10.8217 5.52635 10.8274 5.65128 10.8123 5.77455C10.7876 5.9654 10.7469 6.15385 10.6906 6.33792C10.6557 6.45059 10.6163 6.57002 10.587 6.68946C10.5547 6.80925 10.4927 6.91893 10.4067 7.00833C10.3819 7.0365 10.3538 7.06241 10.3256 7.09058H10.1892C10.1108 7.03444 10.027 6.98613 9.93911 6.94636C9.86471 6.92505 9.7955 6.88864 9.73579 6.8394C9.67608 6.79016 9.62716 6.72915 9.59207 6.66016L9.39039 6.73002C9.36898 6.77734 9.34644 6.82354 9.32391 6.87086C9.21123 7.12325 9.08955 7.37452 8.97349 7.62691C8.95321 7.67085 8.94082 7.71705 8.92279 7.76099C8.85176 7.93586 8.73501 8.08842 8.58477 8.20267L8.61631 8.33675C8.79096 8.47083 8.98476 8.5621 9.15039 8.69956C9.28386 8.81426 9.41099 8.93613 9.53123 9.06463C9.61096 9.15442 9.68119 9.25222 9.7408 9.35645C9.81329 9.46103 9.86529 9.57841 9.89404 9.70236C9.91207 9.79588 9.947 9.88602 9.97178 9.97841C10.0031 10.0788 10.0276 10.1812 10.045 10.2849C10.0585 10.3976 10.1273 10.4956 10.1126 10.6105C10.1433 10.6674 10.1529 10.7332 10.1397 10.7964C10.1404 10.8321 10.1339 10.8676 10.1206 10.9007C10.1072 10.9339 10.0873 10.9639 10.0619 10.9891C10.0297 11.0248 9.99956 11.0625 9.97178 11.1018C9.98193 11.3045 9.98193 11.5075 9.97178 11.7102C9.92671 12.1609 9.95939 12.6229 9.94587 13.0792C9.94054 13.1231 9.93149 13.1664 9.91883 13.2088C9.91094 13.2471 9.93009 13.2877 9.89855 13.3282C9.8839 13.3485 9.89855 13.3958 9.90643 13.4296C9.91432 13.4634 9.91883 13.4803 9.92671 13.5119L10.0191 13.566C10.0857 13.5557 10.1508 13.5371 10.2129 13.5107C10.2828 13.4691 10.365 13.4803 10.4383 13.4386C10.514 13.4048 10.5934 13.3798 10.6749 13.3643C10.7492 13.3406 10.8225 13.3136 10.9002 13.2877C11.0478 13.2381 11.1966 13.1885 11.3509 13.1423C11.4636 13.1108 11.5672 13.0792 11.6732 13.0375C11.7775 12.9943 11.8848 12.9585 11.9943 12.9305C12.1486 12.8944 12.2929 12.8313 12.445 12.7908C12.5385 12.7648 12.6286 12.7322 12.721 12.7096C12.8078 12.691 12.8849 12.6418 12.9385 12.571C12.9678 12.3964 12.8945 12.2432 12.8517 12.0843C12.8089 11.9254 12.73 11.7463 12.7458 11.5649C12.7515 11.4916 12.7075 11.4274 12.7154 11.3508C12.7296 11.2829 12.7217 11.2122 12.6929 11.1491C12.6748 11.1175 12.6929 11.0668 12.6929 11.0252C12.6929 10.9835 12.6715 10.9485 12.6669 10.9125C12.6683 10.8587 12.6595 10.8052 12.641 10.7547C12.6174 10.7085 12.641 10.6522 12.6151 10.5959C12.5927 10.5132 12.5813 10.428 12.5813 10.3424C12.5734 10.2804 12.561 10.2184 12.5543 10.1564C12.5475 10.0945 12.5689 10.0291 12.5272 9.97053C12.516 9.95475 12.5272 9.92433 12.5272 9.90067C12.5272 9.72715 12.5272 9.55363 12.5272 9.38012C12.5323 9.33176 12.5414 9.2839 12.5543 9.23702C12.5573 9.13388 12.5357 9.03152 12.4912 8.93843C12.4796 8.90501 12.4727 8.87011 12.4709 8.83477C12.4602 8.64263 12.4602 8.45003 12.4709 8.25788C12.49 8.08324 12.4709 7.90521 12.5002 7.73507C12.5295 7.56494 12.5115 7.42297 12.5238 7.26748C12.5238 7.19987 12.5453 7.13452 12.5498 7.06692C12.5543 6.99931 12.543 6.92495 12.5498 6.85622C12.5565 6.78748 12.5171 6.75368 12.5193 6.69847C12.5216 6.64326 12.5193 6.5858 12.5193 6.52946C12.5294 6.44013 12.5578 6.35383 12.6027 6.27595L12.8438 6.75594C12.8506 6.74918 12.8574 6.7458 12.8574 6.74242C12.8371 6.57566 12.8991 6.41453 12.8878 6.24778C12.8878 6.21397 12.9081 6.18017 12.9126 6.14637C12.9148 6.11373 12.9148 6.08098 12.9126 6.04834C12.9731 5.94601 13.0491 5.85365 13.1379 5.77455L13.3982 6.03369C13.4106 6.12158 13.4275 6.20496 13.4331 6.28947C13.4388 6.37397 13.4331 6.46862 13.4331 6.55763C13.4331 6.61509 13.4534 6.6703 13.4602 6.7289C13.4669 6.78749 13.4467 6.84833 13.4883 6.90016C13.4848 6.99584 13.4954 7.09153 13.5199 7.1841C13.5236 7.2729 13.5391 7.36082 13.5661 7.4455C13.5718 7.48278 13.5744 7.52046 13.574 7.55817C13.574 7.5931 13.5965 7.62578 13.5999 7.65958C13.6274 7.7912 13.6466 7.92442 13.6574 8.05845C13.7013 8.11479 13.663 8.19253 13.6912 8.24098C13.7193 8.28943 13.7002 8.35366 13.7148 8.41563C13.7452 8.53731 13.7509 8.66351 13.7745 8.78632C13.7796 8.84366 13.789 8.90054 13.8027 8.95646C13.823 9.01505 13.8106 9.07702 13.8309 9.12772C13.8512 9.17843 13.8388 9.24829 13.859 9.29899C13.8793 9.34969 13.8692 9.41166 13.885 9.45786C13.93 9.58856 13.9221 9.72828 13.965 9.86123C13.9825 9.9451 13.993 10.0303 13.9965 10.1159C13.9965 10.1598 14.0168 10.2015 14.0224 10.2455C14.0286 10.2834 14.0369 10.321 14.0472 10.3581C14.0709 10.4438 14.0652 10.5373 14.081 10.6263C14.1057 10.8326 14.1159 11.0405 14.1114 11.2483C14.1153 11.3059 14.1255 11.363 14.1419 11.4184C14.1595 11.4719 14.1805 11.5242 14.2049 11.575C14.2887 11.7495 14.342 11.9369 14.3627 12.1294C14.3693 12.1648 14.3802 12.1992 14.3954 12.2319L14.508 12.3378H14.5373C14.5982 12.3378 14.659 12.3378 14.7199 12.3378C14.7732 12.3365 14.826 12.327 14.8765 12.3096C14.952 12.2803 15.0376 12.3096 15.1018 12.277C15.1661 12.2443 15.2607 12.277 15.3272 12.2522C15.4295 12.2291 15.5346 12.2203 15.6393 12.2263C15.6891 12.218 15.7384 12.2067 15.7869 12.1925L15.8996 12.0651C15.9627 11.6077 15.93 11.1637 15.9356 10.7232C15.9524 10.615 15.9629 10.5059 15.9672 10.3964C15.9536 10.2894 15.9536 10.1812 15.9672 10.0742C15.9806 10.0081 15.9885 9.94102 15.9908 9.87363C15.9908 9.80602 16.0258 9.74518 16.0224 9.67419C16.0277 9.61193 16.041 9.55059 16.0618 9.49166C16.1565 9.50631 16.1328 9.59532 16.1576 9.64941C16.1766 9.70413 16.1865 9.76161 16.1869 9.81954C16.1869 9.88039 16.1869 9.94236 16.1869 10.0032V10.2015C16.2308 10.3221 16.3158 10.4235 16.4269 10.4877L16.277 10.1576C16.3649 10.1159 16.4415 10.1576 16.5317 10.1745L16.6196 10.2962V10.8212L16.428 11.0116V11.1074L16.6624 11.0161C16.6624 11.0161 16.6725 11.024 16.6725 11.0263C16.6669 11.2066 16.7232 11.3823 16.7041 11.5637C16.7041 11.5773 16.7041 11.5964 16.7041 11.6043C16.7536 11.664 16.721 11.7361 16.7401 11.8015C16.7566 11.864 16.7869 11.9219 16.8289 11.9711C16.8708 12.0202 16.9233 12.0593 16.9824 12.0854C17.1052 12.0854 17.2415 12.0854 17.3767 12.0854C17.4576 12.0824 17.5377 12.1023 17.6077 12.1429L17.7136 12.2003C17.8043 12.1506 17.8988 12.1084 17.9964 12.0742C18.0088 12.0742 18.0212 12.0584 18.0325 12.0595C18.17 12.0574 18.3073 12.048 18.4437 12.0313C19.2978 12.0313 20.1519 12.0313 21.006 12.0313C21.3361 12.0313 21.664 11.9795 21.9941 12.0009C22.2848 11.9412 22.5789 11.9863 22.8707 11.9739C22.9732 11.9739 23.0769 11.9739 23.1806 11.9739C23.2733 11.9608 23.3673 11.9608 23.46 11.9739C23.554 11.9938 23.6503 12.001 23.7462 11.9953C23.8397 11.9898 23.9335 11.9917 24.0267 12.0009C24.179 12.0142 24.3299 12.041 24.4774 12.0809C24.4932 12.0809 24.5158 12.0809 24.5327 12.0809C24.5935 12.0905 24.652 12.1115 24.705 12.1429C24.7929 12.206 24.8921 12.2556 24.989 12.313C25.0399 12.2748 25.0979 12.2472 25.1596 12.2317C25.2213 12.2162 25.2855 12.2132 25.3484 12.2229C25.4294 12.2397 25.5087 12.2642 25.585 12.2961C25.7015 12.3397 25.8218 12.3722 25.9445 12.393L25.914 12.4629C25.741 12.4914 25.564 12.4849 25.3935 12.4437C25.354 12.5677 25.2617 12.6691 25.2402 12.7986C25.398 12.837 25.5456 12.8786 25.6909 12.9113C25.7916 12.9439 25.8949 12.9676 25.9997 12.9823V13.0668L25.9478 13.0984C25.9332 13.0893 25.914 13.0679 25.8971 13.0691C25.7876 13.0688 25.6783 13.0594 25.5704 13.0409C25.4886 13.0397 25.4071 13.0306 25.327 13.0139C25.256 12.9913 25.1715 13.0341 25.1017 12.9834C25.0949 12.9834 25.0825 12.9834 25.0735 12.9834C24.9225 12.9744 24.7715 12.9677 24.6228 12.9541C24.5618 12.939 24.4996 12.9296 24.4369 12.926C24.3743 12.9261 24.3119 12.9189 24.251 12.9046C24.1246 12.895 23.9976 12.895 23.8713 12.9046C23.8586 12.9065 23.8464 12.9107 23.8352 12.917C23.7158 12.9698 23.586 12.9949 23.4555 12.9902C23.3978 12.9945 23.3406 13.0032 23.2842 13.0161C23.2285 13.0093 23.1721 13.0093 23.1163 13.0161C22.989 13.0612 22.8583 13.0229 22.7332 13.0431C22.5079 13.0803 22.2826 13.0431 22.0572 13.0758C21.8758 13.1006 21.6978 13.086 21.5186 13.0972C21.3721 13.1074 21.2268 13.1198 21.0803 13.1243C20.9301 13.1165 20.7796 13.1184 20.6296 13.1299C20.3705 13.1739 20.1102 13.1299 19.8522 13.1558C19.3632 13.2065 18.8742 13.1693 18.3874 13.1817C18.1012 13.2415 17.8105 13.1817 17.5266 13.2155C17.3226 13.2392 17.121 13.2302 16.9181 13.2392C16.8289 13.2438 16.7443 13.2806 16.6801 13.3427C16.6159 13.4049 16.5764 13.4882 16.5689 13.5772C16.5525 13.7457 16.5247 13.9128 16.4855 14.0775C16.4252 14.292 16.3333 14.4963 16.2128 14.6837C16.0964 14.8549 15.9577 15.0099 15.8004 15.1445C15.6815 15.251 15.548 15.3397 15.4038 15.4082C15.3153 15.4538 15.2295 15.5046 15.1469 15.5603C14.9723 15.6132 14.8483 15.5299 14.7232 15.4814C14.5445 15.4138 14.3649 15.3488 14.1847 15.2865C14.1768 15.2865 14.1711 15.2741 14.161 15.264C14.1148 15.3496 14.2173 15.4285 14.161 15.5152H14.1013C13.9509 15.3165 13.833 15.0952 13.752 14.8595C13.7415 14.8354 13.7286 14.8124 13.7137 14.7907C13.601 14.5857 13.5244 14.3614 13.4196 14.1519C13.3836 14.0775 13.352 14.002 13.3069 13.9265C13.272 13.8727 13.2234 13.8292 13.1661 13.8003C12.9982 13.7721 12.8427 13.8533 12.6805 13.8961C12.5588 13.9288 12.4382 13.9682 12.3143 13.9975C12.1903 14.0268 12.0822 14.073 11.9661 14.1102C11.832 14.1496 11.6957 14.1834 11.5627 14.2228C11.4298 14.2623 11.2912 14.3186 11.1515 14.3524C10.9768 14.393 10.8135 14.455 10.6377 14.5057C10.3797 14.5834 10.1239 14.6724 9.87151 14.7648C9.78179 14.8 9.69697 14.8466 9.61911 14.9034C9.46362 15.0161 9.29687 15.1028 9.13687 15.211C9.09631 15.3113 9.19659 15.4037 9.16053 15.5062C9.12109 15.5569 9.08616 15.611 9.04222 15.6583C8.99828 15.7056 8.93969 15.7507 8.88335 15.8003C8.80448 15.7924 8.80335 15.7034 8.75152 15.6617C8.68955 15.6989 8.68505 15.7687 8.66477 15.8532C8.57237 15.7316 8.55209 15.5997 8.49012 15.4803L7.44 16.2037V15.9479C7.37014 15.9276 7.32732 15.9659 7.28563 15.9941C7.1673 16.0785 7.0447 16.1567 6.91832 16.2284C6.80269 16.2891 6.67198 16.3149 6.54199 16.3028C6.61029 16.1949 6.69334 16.097 6.78874 16.0121C6.8586 15.9389 6.91944 15.8589 6.9893 15.7868C7.10388 15.6759 7.22504 15.5721 7.35211 15.4758C7.55943 15.3045 7.78478 15.158 8.00111 15.0003C8.13426 14.9007 8.25662 14.7874 8.36618 14.6623C8.46643 14.5562 8.53882 14.4269 8.57688 14.2859C8.58384 14.2703 8.58949 14.2541 8.59378 14.2375C8.60433 14.0922 8.60245 13.9464 8.58815 13.8014C8.56786 13.6775 8.5735 13.5547 8.56449 13.4319C8.55035 13.3803 8.54093 13.3275 8.53632 13.2741C8.54347 13.2248 8.5352 13.1744 8.51265 13.1299C8.49575 13.0961 8.51265 13.0465 8.51265 13.0048C8.51265 12.9631 8.49012 12.9372 8.48674 12.9034C8.4766 12.7761 8.37407 12.3941 8.33125 12.1936C8.28843 11.993 8.18928 11.8364 8.14759 11.6494C8.03492 11.4736 7.96957 11.2708 7.85126 11.095C7.78703 11.0015 7.73858 10.9001 7.67211 10.8032C7.60563 10.7063 7.5369 10.6161 7.46929 10.5226C7.34296 10.3612 7.20352 10.2104 7.0524 10.0719C6.88087 9.90572 6.692 9.7584 6.48903 9.6325C6.37129 9.55731 6.24982 9.48811 6.12509 9.42519C6.01334 9.36721 5.89733 9.31786 5.77805 9.27758C5.66315 9.24001 5.55032 9.19638 5.44003 9.14688C5.29243 9.08266 5.14257 9.02519 4.98934 8.97111C4.8361 8.91702 4.66146 8.83365 4.48906 8.78407C4.35273 8.74463 4.22315 8.67928 4.08907 8.62745C3.93133 8.56661 3.77246 8.50915 3.61471 8.44718C3.54726 8.41693 3.48704 8.37265 3.43807 8.31727C3.38911 8.26189 3.35253 8.1967 3.33078 8.12605C3.29917 8.01922 3.30473 7.90482 3.34655 7.80155C3.39006 7.65123 3.44467 7.50435 3.50993 7.36212C3.55969 7.24891 3.62657 7.14402 3.70823 7.05114C3.79237 6.95882 3.90293 6.89469 4.02485 6.86748C4.09872 6.85048 4.1744 6.84254 4.25019 6.84382C4.33951 6.83875 4.42904 6.83875 4.51836 6.84382C4.62536 6.84695 4.73147 6.86438 4.83385 6.89565C4.83385 6.89565 4.84286 6.89565 4.84624 6.89565C4.93976 6.87537 5.02539 6.92607 5.11553 6.92495C5.15288 6.87358 5.16938 6.80997 5.16173 6.74692C5.16173 6.6703 5.18088 6.59481 5.18877 6.52157C5.19666 6.44834 5.16849 6.37397 5.21694 6.30862C5.21694 6.30862 5.21694 6.29848 5.21694 6.29397C5.22708 6.1475 5.23384 6.00102 5.24623 5.85567C5.25187 5.78807 5.26764 5.72271 5.27215 5.65511C5.2659 5.58991 5.2659 5.52426 5.27215 5.45906C5.28662 5.38849 5.29566 5.31692 5.29919 5.24498C5.30933 5.18188 5.34088 5.12216 5.35665 5.05794C5.37581 4.99121 5.40345 4.92721 5.43891 4.86752C5.48269 4.78578 5.53685 4.71004 5.60003 4.64217C5.78694 4.45377 6.00117 4.29461 6.23551 4.17007C6.39213 4.07993 6.53523 3.965 6.68621 3.8681C6.81342 3.78312 6.94548 3.70562 7.08169 3.63599C7.16845 3.5943 7.24394 3.53458 7.33296 3.49402C7.49559 3.40699 7.67278 3.35047 7.85576 3.32727C7.9245 3.26642 8.01238 3.31487 8.09125 3.28445C8.16829 3.26847 8.24725 3.26392 8.32561 3.27093C8.39351 3.26866 8.46131 3.2778 8.52618 3.29797C8.5904 3.316 8.66476 3.27543 8.72448 3.32727C8.82722 3.32898 8.92893 3.34802 9.02532 3.3836C9.1621 3.41241 9.29463 3.45861 9.41968 3.52106C9.49942 3.56038 9.5866 3.58227 9.67545 3.58529C9.87934 3.58772 10.0793 3.64159 10.2568 3.7419C10.3473 3.78675 10.4248 3.85383 10.4822 3.93683C10.5239 4.00894 10.6095 4.0495 10.6219 4.16218C10.7346 4.07993 10.7718 3.95261 10.8743 3.87261L10.5521 3.67317C10.5654 3.65108 10.5809 3.63033 10.5983 3.6112C10.7256 3.49064 10.8484 3.36445 10.9858 3.25515C11.1331 3.14061 11.2861 3.0338 11.4444 2.93516C11.6968 2.77403 11.9515 2.61742 12.2061 2.4608C12.4055 2.33911 12.5881 2.19264 12.7965 2.08672C12.9263 1.97444 13.0624 1.86985 13.2044 1.77349C13.3364 1.65953 13.4752 1.55379 13.6202 1.45687C13.6859 1.40803 13.7484 1.35496 13.8072 1.298C14.0323 1.11707 14.2411 0.916881 14.4314 0.699705C14.5521 0.567425 14.6622 0.425762 14.7604 0.276051C14.8147 0.178415 14.8788 0.086658 14.952 0.00225224L15.0421 0ZM15.2055 14.2251L15.7689 13.6065V13.4679C15.7267 13.4322 15.6741 13.4113 15.619 13.4082C15.4601 13.4082 15.3013 13.4082 15.1413 13.4082C15.107 13.4066 15.0727 13.4121 15.0407 13.4246C15.0086 13.437 14.9796 13.456 14.9554 13.4803C14.9552 13.6309 14.9635 13.7814 14.9801 13.931C14.9914 14.0339 15.0389 14.1294 15.1142 14.2003L15.1435 14.2262L15.2055 14.2251ZM12.8123 7.23367L12.9881 7.40832H13.0162L13.1537 7.27086C13.1546 6.96585 13.1331 6.66119 13.0895 6.35932L12.8833 6.76495C12.8663 6.79048 12.8538 6.81866 12.8461 6.84833C12.8315 6.98354 12.8224 7.11537 12.8123 7.23367ZM7.84224 6.58242C7.91999 6.62185 7.99097 6.66467 8.06759 6.69509C8.14259 6.74566 8.23432 6.76506 8.32336 6.74918C8.2659 6.64326 8.25914 6.52383 8.14196 6.4427L7.81182 6.48326L7.84224 6.58242Z" fill="#F2F1F1"/>
<path d="M0 24.3096C0.0382364 24.2978 0.0731587 24.2772 0.101935 24.2494C0.130712 24.2216 0.152534 24.1874 0.165631 24.1496C0.239305 24.0443 0.278655 23.9187 0.278305 23.7902C0.336896 23.6775 0.29408 23.5648 0.330136 23.4454C0.348614 23.3558 0.394586 23.2742 0.461643 23.212C0.5287 23.1498 0.613497 23.1101 0.704213 23.0984C0.724618 23.0937 0.744594 23.0873 0.76393 23.0792C0.791312 23.0096 0.814638 22.9385 0.833789 22.8663C0.849563 22.7818 0.934068 22.7412 0.954349 22.6623C1.07716 22.5868 1.1797 22.4809 1.33181 22.4505C1.44448 22.4257 1.55716 22.3874 1.67772 22.3682C1.80768 22.3446 1.93631 22.3142 2.06306 22.277C2.1976 22.2413 2.33001 22.198 2.45967 22.1474C2.58812 22.0967 2.72221 22.0584 2.85178 22.0088C3.09628 21.9164 3.33403 21.8128 3.5729 21.708C3.7205 21.6438 3.86134 21.5649 4.00782 21.5007C4.12891 21.4533 4.24705 21.3988 4.36161 21.3373C4.5802 21.2066 4.81231 21.1029 5.02639 20.9655C5.18075 20.8663 5.34075 20.7739 5.49624 20.6748C5.61906 20.5948 5.73398 20.5001 5.85229 20.4122C6.0506 20.2657 6.23538 20.1024 6.44045 19.9615C6.51305 19.9063 6.58263 19.8473 6.6489 19.7846C6.72101 19.7215 6.78974 19.6528 6.86636 19.5965C7.05009 19.4578 7.22194 19.304 7.38015 19.1368C7.47132 19.0369 7.55529 18.9307 7.63142 18.819C7.69789 18.7232 7.7655 18.6286 7.83986 18.5396C7.87934 18.5019 7.92279 18.4687 7.96944 18.4404C8.12605 18.5689 8.11141 18.739 8.10915 18.8911C8.04718 19.0894 7.90747 19.2201 7.81507 19.3801C7.74972 19.4928 7.67085 19.6055 7.60325 19.7182C7.52437 19.85 7.45001 19.9829 7.3779 20.1181C7.31721 20.2123 7.28693 20.3228 7.29114 20.4348C7.29677 20.4945 7.29114 20.5553 7.29114 20.6139C7.1637 20.7402 7.04582 20.8758 6.93847 21.0195C6.87086 21.1074 6.78861 21.1818 6.72213 21.2685C6.63876 21.3812 6.53735 21.4691 6.4596 21.5818C6.40327 21.664 6.32552 21.7316 6.26355 21.8071C6.13623 21.9671 5.99088 22.1113 5.87257 22.2792C5.81286 22.3649 5.73286 22.437 5.66525 22.517C5.59765 22.597 5.52554 22.6927 5.46019 22.7739L5.51652 22.9992L5.59539 23.0432C5.59642 23.051 5.59642 23.059 5.59539 23.0668C5.55256 23.1122 5.51478 23.162 5.48272 23.2156C5.42976 23.3282 5.3216 23.3665 5.23258 23.4274C5.09399 23.5243 4.93851 23.5975 4.78978 23.6809L4.33908 23.9288C4.31587 23.9382 4.29168 23.945 4.26697 23.9491C4.10432 24.1094 3.89617 24.2156 3.67092 24.2533C3.55421 24.2831 3.43504 24.3023 3.31487 24.3107C3.26192 24.3107 3.21008 24.331 3.15713 24.3367C3.10417 24.3423 3.04445 24.3175 3.00502 24.3367C2.94981 24.3738 2.89234 24.3434 2.84502 24.3603C2.6715 24.42 2.49122 24.4538 2.31545 24.5091C2.16237 24.5617 2.00668 24.6065 1.84898 24.6431C1.6856 24.6747 1.52448 24.7186 1.36336 24.7558C1.25068 24.7851 1.13801 24.8133 1.01632 24.8347C0.894633 24.8561 0.790972 24.8809 0.678298 24.9045V24.9181H0.396613C0.396613 24.9102 0.396613 24.8967 0.387599 24.8955C0.32196 24.8897 0.258672 24.8682 0.20301 24.8329C0.147347 24.7976 0.100923 24.7496 0.0676051 24.6927C0.0484505 24.6668 0.0270421 24.642 0.00563405 24.6161L0 24.3096Z" fill="#F2F1F1"/>
<path d="M0 24.6187C0.0214081 24.6446 0.0428165 24.6694 0.0619711 24.6953C0.0946737 24.754 0.141218 24.8039 0.197568 24.8407C0.253918 24.8774 0.318375 24.8998 0.385347 24.906C0.385347 24.906 0.390979 24.9206 0.394359 24.9285H0V24.6187Z" fill="#F2F1F1"/>
<path d="M8.54686 16.8442H8.63137C8.63137 16.8521 8.64376 16.8589 8.64489 16.8668C8.65841 16.9952 8.59418 17.1101 8.57954 17.2341C8.52996 17.278 8.59418 17.3558 8.53221 17.3975C8.52021 17.4949 8.49947 17.5911 8.47024 17.6848L8.29785 17.6296L8.54686 16.8442Z" fill="#F2F1F1"/>
<path d="M16.0757 9.29685H16.0352V8.48898C16.0791 8.47772 16.1242 8.46645 16.158 8.51264C16.247 8.78531 16.1805 9.04334 16.0757 9.29685Z" fill="#F2F1F1"/>
</svg>
