<svg width="32" height="30" viewBox="0 0 32 30" fill="none" xmlns="http://www.w3.org/2000/svg">
<path d="M18.1025 0C18.1188 0.0216953 18.131 0.0569504 18.1514 0.0637302C18.2625 0.111787 18.3687 0.170359 18.4686 0.238648C18.493 0.24939 18.5155 0.264046 18.5351 0.282037C18.7064 0.438601 18.8592 0.614204 18.9907 0.805437C19.051 0.887237 19.0842 0.98586 19.0856 1.08748C19.0856 1.1946 19.0924 1.30307 19.0856 1.40884C19.0639 1.68817 19.1344 1.96342 19.1209 2.24411C19.0756 2.30377 19.0513 2.37669 19.0517 2.45157C19.0526 2.4838 19.0461 2.51581 19.0327 2.54513C19.0156 2.58871 19.0156 2.63714 19.0327 2.68073C19.0859 2.85631 19.1011 3.04119 19.0775 3.22311C19.0341 3.33023 19.0653 3.44956 18.9826 3.5743C18.8903 3.65837 18.7751 3.77227 18.649 3.87126C18.6141 3.90498 18.5726 3.93107 18.5271 3.94788C18.4815 3.96469 18.433 3.97184 18.3846 3.96889C18.3281 3.96549 18.2715 3.96549 18.2151 3.96889C18.1554 4.01499 18.0958 4.06245 18.0347 4.10448C17.8008 4.25534 17.5452 4.36965 17.2768 4.44347C17.1154 4.49228 16.9513 4.53161 16.7913 4.57907C16.7418 4.59442 16.6957 4.61929 16.6557 4.65229C16.5296 4.75805 16.4076 4.86924 16.2828 4.97908L16.2232 4.84348C16.07 4.89365 15.9181 4.94789 15.7635 4.99399C15.472 5.07941 15.1886 5.18789 14.8984 5.27603C14.7221 5.32755 14.5486 5.39129 14.3709 5.43874C14.214 5.47974 14.0592 5.52862 13.9072 5.58519C13.8191 5.61388 13.7241 5.61388 13.636 5.58519C13.5655 5.56213 13.4936 5.5757 13.4313 5.54858C13.3495 5.51084 13.2699 5.46875 13.1926 5.42247H12.7601C12.794 5.59197 12.8631 5.7479 12.8875 5.92011C12.916 6.11537 12.9513 6.31198 12.9919 6.50453C13.0235 6.6506 13.0304 6.80093 13.0123 6.94928C12.9825 7.17896 12.9335 7.40575 12.8658 7.62726C12.8238 7.76286 12.7763 7.90659 12.7411 8.05032C12.7023 8.19447 12.6276 8.32648 12.5241 8.43405C12.4943 8.46795 12.4604 8.49914 12.4265 8.53304H12.2624C12.168 8.46548 12.0672 8.40735 11.9614 8.35948C11.8719 8.33383 11.7886 8.29002 11.7167 8.23076C11.6449 8.1715 11.586 8.09808 11.5438 8.01506L11.3011 8.09913C11.2753 8.15608 11.2482 8.21168 11.2211 8.26863C11.0855 8.57236 10.939 8.87474 10.7994 9.17847C10.7749 9.23136 10.76 9.28695 10.7383 9.33983C10.6529 9.55028 10.5124 9.73387 10.3315 9.87137L10.3695 10.0327C10.5797 10.1941 10.8129 10.3039 11.0122 10.4693C11.1729 10.6074 11.3259 10.754 11.4706 10.9087C11.5665 11.0167 11.651 11.1344 11.7228 11.2599C11.81 11.3857 11.8726 11.527 11.9072 11.6761C11.9289 11.7887 11.9709 11.8972 12.0007 12.0084C12.0384 12.1292 12.0679 12.2524 12.0889 12.3772C12.1051 12.5128 12.1879 12.6307 12.1702 12.769C12.2071 12.8375 12.2186 12.9167 12.2028 12.9928C12.2037 13.0358 12.1959 13.0785 12.1798 13.1183C12.1637 13.1582 12.1397 13.1944 12.1092 13.2247C12.0704 13.2676 12.0342 13.3129 12.0007 13.3602C12.0129 13.6042 12.0129 13.8485 12.0007 14.0925C11.9465 14.6348 11.9858 15.1908 11.9695 15.7399C11.9631 15.7928 11.9522 15.8449 11.937 15.8959C11.9275 15.942 11.9506 15.9908 11.9126 16.0396C11.895 16.064 11.9126 16.121 11.9221 16.1617C11.9316 16.2023 11.937 16.2227 11.9465 16.2606L12.0577 16.3257C12.1379 16.3133 12.2162 16.291 12.2909 16.2593C12.375 16.2091 12.474 16.2227 12.5621 16.1725C12.6532 16.1318 12.7488 16.1017 12.8468 16.083C12.9363 16.0545 13.0245 16.022 13.118 15.9908C13.2957 15.9311 13.4747 15.8715 13.6604 15.8159C13.796 15.7779 13.9208 15.74 14.0482 15.6898C14.1738 15.6377 14.303 15.5947 14.4347 15.561C14.6204 15.5176 14.794 15.4416 14.9771 15.3928C15.0896 15.3616 15.1981 15.3223 15.3093 15.2952C15.4136 15.2727 15.5065 15.2135 15.571 15.1284C15.6062 14.9182 15.5181 14.7338 15.4666 14.5426C15.415 14.3515 15.3201 14.1359 15.3391 13.9175C15.3459 13.8294 15.293 13.7521 15.3025 13.6599C15.3196 13.5782 15.3101 13.4931 15.2754 13.4172C15.2537 13.3792 15.2754 13.3182 15.2754 13.268C15.2754 13.2179 15.2496 13.1758 15.2442 13.1324C15.2458 13.0678 15.2352 13.0034 15.213 12.9426C15.1845 12.887 15.213 12.8192 15.1818 12.7514C15.1548 12.652 15.1412 12.5494 15.1411 12.4463C15.1316 12.3718 15.1167 12.2972 15.1086 12.2226C15.1004 12.148 15.1262 12.0694 15.076 11.9989C15.0625 11.9799 15.076 11.9433 15.076 11.9148C15.076 11.706 15.076 11.4972 15.076 11.2883C15.0822 11.2301 15.0931 11.1726 15.1086 11.1161C15.1122 10.992 15.0862 10.8688 15.0327 10.7568C15.0187 10.7166 15.0105 10.6746 15.0082 10.6321C14.9954 10.4008 14.9954 10.169 15.0082 9.93781C15.0313 9.72764 15.0082 9.5134 15.0435 9.30865C15.0788 9.1039 15.0571 8.93305 15.072 8.74592C15.072 8.66457 15.0977 8.58592 15.1032 8.50456C15.1086 8.42321 15.095 8.33371 15.1032 8.251C15.1113 8.16829 15.0638 8.12761 15.0665 8.06117C15.0693 7.99472 15.0665 7.92557 15.0665 7.85777C15.0787 7.75026 15.1128 7.64641 15.1669 7.55268L15.4571 8.13032C15.4652 8.12218 15.4733 8.11812 15.4733 8.11405C15.4489 7.91337 15.5235 7.71946 15.5099 7.51878C15.5099 7.4781 15.5344 7.43742 15.5398 7.39675C15.5425 7.35747 15.5425 7.31805 15.5398 7.27878C15.6127 7.15563 15.7041 7.04448 15.811 6.94928L16.1242 7.26115C16.1391 7.36691 16.1594 7.46726 16.1662 7.56895C16.173 7.67065 16.1662 7.78455 16.1662 7.89167C16.1662 7.96082 16.1906 8.02727 16.1988 8.09778C16.2069 8.16829 16.1825 8.24151 16.2327 8.30388C16.2284 8.41903 16.2412 8.53418 16.2706 8.64558C16.2751 8.75245 16.2937 8.85825 16.3262 8.96016C16.3331 9.00503 16.3363 9.05038 16.3357 9.09576C16.3357 9.13779 16.3628 9.17712 16.3669 9.2178C16.4 9.37619 16.4231 9.53651 16.4361 9.6978C16.4889 9.7656 16.4428 9.85917 16.4767 9.91747C16.5106 9.97578 16.4876 10.0531 16.5052 10.1276C16.5418 10.2741 16.5486 10.426 16.5771 10.5738C16.5832 10.6428 16.5945 10.7112 16.611 10.7785C16.6354 10.849 16.6205 10.9236 16.6449 10.9846C16.6693 11.0456 16.6544 11.1297 16.6788 11.1907C16.7032 11.2517 16.691 11.3263 16.71 11.3819C16.7642 11.5392 16.7547 11.7073 16.8062 11.8673C16.8273 11.9683 16.84 12.0708 16.8442 12.1738C16.8442 12.2267 16.8686 12.2768 16.8754 12.3297C16.8829 12.3754 16.8928 12.4207 16.9052 12.4653C16.9337 12.5684 16.9269 12.6809 16.9459 12.788C16.9757 13.0364 16.9879 13.2865 16.9825 13.5365C16.9872 13.6059 16.9995 13.6746 17.0191 13.7413C17.0403 13.8057 17.0657 13.8686 17.0951 13.9297C17.1958 14.1397 17.26 14.3653 17.2849 14.5969C17.2928 14.6395 17.306 14.6809 17.3242 14.7203L17.4598 14.8477H17.4951C17.5683 14.8477 17.6415 14.8477 17.7147 14.8477C17.7789 14.8462 17.8425 14.8347 17.9032 14.8138C17.9941 14.7786 18.0971 14.8138 18.1744 14.7745C18.2517 14.7352 18.3656 14.7745 18.4456 14.7447C18.5687 14.7168 18.6952 14.7063 18.8212 14.7135C18.8812 14.7036 18.9405 14.69 18.9988 14.6728L19.1344 14.5196C19.2104 13.9691 19.171 13.4348 19.1778 12.9046C19.198 12.7744 19.2106 12.6431 19.2158 12.5114C19.1995 12.3827 19.1995 12.2524 19.2158 12.1236C19.2319 12.0441 19.2415 11.9634 19.2443 11.8823C19.2443 11.8009 19.2863 11.7277 19.2822 11.6422C19.2887 11.5673 19.3046 11.4935 19.3297 11.4226C19.4436 11.4402 19.4151 11.5473 19.4449 11.6124C19.4678 11.6783 19.4797 11.7474 19.4802 11.8172C19.4802 11.8904 19.4802 11.965 19.4802 12.0382V12.2768C19.533 12.422 19.6353 12.5439 19.769 12.6212L19.5887 12.224C19.6944 12.1738 19.7866 12.224 19.8951 12.2443L20.0009 12.3907V13.0226L19.7704 13.2518V13.367L20.0524 13.2572C20.0524 13.2572 20.0646 13.2667 20.0646 13.2694C20.0578 13.4863 20.1256 13.6979 20.1026 13.9162C20.1026 13.9325 20.1026 13.9555 20.1026 13.965C20.1622 14.0369 20.1229 14.1236 20.146 14.2023C20.1658 14.2775 20.2023 14.3472 20.2528 14.4064C20.3032 14.4655 20.3664 14.5126 20.4375 14.544C20.5853 14.544 20.7494 14.544 20.9121 14.544C21.0094 14.5404 21.1058 14.5644 21.1901 14.6131L21.3175 14.6823C21.4266 14.6224 21.5404 14.5716 21.6579 14.5304C21.6728 14.5304 21.6877 14.5115 21.7012 14.5128C21.8667 14.5103 22.0319 14.499 22.1962 14.4789C23.224 14.4789 24.2518 14.4789 25.2796 14.4789C25.6769 14.4789 26.0715 14.4165 26.4688 14.4423C26.8186 14.3704 27.1725 14.4247 27.5237 14.4098C27.6471 14.4098 27.7719 14.4098 27.8966 14.4098C28.0082 14.3941 28.1213 14.3941 28.2329 14.4098C28.346 14.4337 28.4619 14.4424 28.5773 14.4355C28.6899 14.4289 28.8028 14.4312 28.9149 14.4423C29.0982 14.4583 29.2797 14.4905 29.4573 14.5386C29.4763 14.5386 29.5034 14.5386 29.5238 14.5386C29.597 14.5501 29.6674 14.5754 29.7312 14.6131C29.837 14.6891 29.9563 14.7487 30.0729 14.8179C30.1342 14.7719 30.204 14.7386 30.2783 14.72C30.3525 14.7014 30.4298 14.6978 30.5055 14.7094C30.603 14.7297 30.6983 14.7592 30.7902 14.7976C30.9304 14.8501 31.0752 14.8891 31.2228 14.9142L31.1862 14.9982C30.9779 15.0326 30.7649 15.0247 30.5597 14.9752C30.5123 15.1243 30.4011 15.2464 30.3753 15.4023C30.5651 15.4484 30.7428 15.4986 30.9177 15.5379C31.0388 15.5771 31.1631 15.6057 31.2892 15.6233V15.725L31.2268 15.763C31.2092 15.7522 31.1862 15.7264 31.1658 15.7277C31.034 15.7274 30.9025 15.7161 30.7726 15.6938C30.6742 15.6924 30.5761 15.6815 30.4797 15.6613C30.3943 15.6342 30.2926 15.6857 30.2085 15.6247C30.2004 15.6247 30.1855 15.6247 30.1746 15.6247C29.9929 15.6138 29.8112 15.6057 29.6322 15.5894C29.5589 15.5712 29.484 15.5599 29.4085 15.5555C29.3332 15.5557 29.2581 15.547 29.1848 15.5298C29.0327 15.5182 28.8799 15.5182 28.7278 15.5298C28.7126 15.5321 28.6979 15.5371 28.6844 15.5447C28.5408 15.6083 28.3845 15.6384 28.2275 15.6328C28.1581 15.638 28.0892 15.6484 28.0214 15.664C27.9543 15.6558 27.8864 15.6558 27.8193 15.664C27.6661 15.7183 27.5088 15.6722 27.3583 15.6966C27.0871 15.7413 26.8159 15.6966 26.5447 15.7359C26.3264 15.7657 26.1122 15.7481 25.8966 15.7616C25.7203 15.7738 25.5454 15.7888 25.3691 15.7942C25.1884 15.7849 25.0072 15.7872 24.8267 15.801C24.5149 15.8539 24.2016 15.801 23.8911 15.8322C23.3026 15.8932 22.7141 15.8484 22.1284 15.8633C21.784 15.9352 21.4341 15.8633 21.0924 15.904C20.847 15.9325 20.6043 15.9216 20.3602 15.9325C20.2528 15.938 20.151 15.9823 20.0737 16.0571C19.9965 16.1319 19.9489 16.2321 19.9399 16.3393C19.9202 16.542 19.8867 16.7432 19.8395 16.9413C19.767 17.1995 19.6564 17.4453 19.5114 17.6708C19.3713 17.8769 19.2044 18.0634 19.0151 18.2254C18.872 18.3535 18.7113 18.4604 18.5378 18.5427C18.4313 18.5976 18.328 18.6588 18.2286 18.7258C18.0185 18.7895 17.8693 18.6892 17.7188 18.6309C17.5037 18.5495 17.2876 18.4713 17.0707 18.3963C17.0612 18.3963 17.0544 18.3814 17.0422 18.3692C16.9866 18.4722 17.11 18.5671 17.0422 18.6715H16.9703C16.7893 18.4324 16.6474 18.166 16.55 17.8824C16.5373 17.8534 16.5218 17.8257 16.5039 17.7996C16.3683 17.5529 16.2761 17.283 16.15 17.0308C16.1066 16.9413 16.0686 16.8505 16.0144 16.7596C15.9723 16.6949 15.9138 16.6425 15.8449 16.6078C15.6428 16.5739 15.4557 16.6715 15.2605 16.723C15.114 16.7623 14.9689 16.8098 14.8198 16.8451C14.6706 16.8803 14.5404 16.9359 14.4008 16.9806C14.2394 17.0281 14.0753 17.0688 13.9153 17.1162C13.7553 17.1637 13.5886 17.2315 13.4204 17.2722C13.2102 17.321 13.0136 17.3956 12.8021 17.4566C12.4916 17.5502 12.1838 17.6573 11.8801 17.7685C11.7721 17.8108 11.67 17.8669 11.5763 17.9352C11.3892 18.0708 11.1885 18.1753 10.996 18.3054C10.9472 18.4261 11.0678 18.5373 11.0244 18.6607C10.977 18.7217 10.9349 18.7868 10.8821 18.8437C10.8292 18.9007 10.7587 18.9549 10.6909 19.0146C10.596 19.0051 10.5946 18.898 10.5322 18.8478C10.4577 18.8926 10.4522 18.9766 10.4278 19.0783C10.3166 18.9319 10.2922 18.7732 10.2176 18.6295L8.95389 19.5V19.1922C8.86982 19.1678 8.8183 19.2139 8.76813 19.2478C8.62572 19.3493 8.47818 19.4435 8.32609 19.5299C8.18693 19.6028 8.02963 19.6339 7.8732 19.6193C7.95539 19.4895 8.05534 19.3717 8.17015 19.2695C8.25422 19.1814 8.32744 19.0851 8.41151 18.9983C8.5494 18.8649 8.69521 18.7399 8.84813 18.6241C9.09762 18.418 9.36882 18.2417 9.62916 18.0519C9.7894 17.932 9.93664 17.7956 10.0685 17.6451C10.1891 17.5174 10.2763 17.3618 10.3221 17.1922C10.3304 17.1733 10.3372 17.1538 10.3424 17.1339C10.3551 16.9591 10.3528 16.7835 10.3356 16.6091C10.3112 16.46 10.318 16.3122 10.3071 16.1644C10.2901 16.1022 10.2788 16.0387 10.2732 15.9745C10.2818 15.9151 10.2719 15.8545 10.2448 15.801C10.2244 15.7603 10.2448 15.7006 10.2448 15.6505C10.2448 15.6003 10.2176 15.5691 10.2136 15.5284C10.2014 15.3752 10.078 14.9155 10.0265 14.6742C9.97493 14.4328 9.85561 14.2443 9.80544 14.0192C9.66984 13.8077 9.59119 13.5636 9.44882 13.3521C9.37153 13.2396 9.31322 13.1175 9.23322 13.0009C9.15322 12.8843 9.07051 12.7758 8.98915 12.6633C8.83711 12.469 8.66931 12.2876 8.48745 12.1209C8.28103 11.9209 8.05373 11.7436 7.80947 11.5921C7.66777 11.5016 7.52159 11.4183 7.37149 11.3426C7.23701 11.2728 7.09739 11.2134 6.95386 11.165C6.81558 11.1197 6.67979 11.0672 6.54707 11.0077C6.36944 10.9304 6.1891 10.8612 6.00469 10.7961C5.82028 10.731 5.6101 10.6307 5.40264 10.571C5.23857 10.5236 5.08264 10.4449 4.92128 10.3826C4.73144 10.3093 4.54025 10.2402 4.35042 10.1656C4.26924 10.1292 4.19677 10.0759 4.13785 10.0093C4.07892 9.94264 4.0349 9.86418 4.00872 9.77916C3.97068 9.65059 3.97737 9.51292 4.0277 9.38865C4.08006 9.20775 4.14578 9.03099 4.22432 8.85982C4.2842 8.72357 4.36469 8.59735 4.46296 8.48558C4.56422 8.37447 4.69727 8.2973 4.84399 8.26456C4.93289 8.2441 5.02396 8.23453 5.11518 8.23608C5.22266 8.22998 5.33041 8.22998 5.4379 8.23608C5.56667 8.23985 5.69436 8.26082 5.81756 8.29846C5.81756 8.29846 5.82841 8.29846 5.83248 8.29846C5.94503 8.27405 6.04808 8.33507 6.15655 8.33371C6.2015 8.27189 6.22136 8.19534 6.21215 8.11947C6.21215 8.02727 6.2352 7.93642 6.24469 7.84828C6.25418 7.76014 6.22028 7.67065 6.27859 7.592C6.27859 7.592 6.27859 7.5798 6.27859 7.57438C6.29079 7.3981 6.29893 7.22183 6.31385 7.04691C6.32063 6.96555 6.33961 6.88691 6.34503 6.80555C6.33751 6.72708 6.33751 6.64808 6.34503 6.56961C6.36245 6.48469 6.37333 6.39856 6.37757 6.31198C6.38978 6.23605 6.42775 6.16418 6.44673 6.08689C6.46978 6.00659 6.50305 5.92957 6.54571 5.85773C6.59841 5.75937 6.66358 5.66822 6.73962 5.58654C6.96454 5.35981 7.22236 5.16828 7.50438 5.0184C7.69285 4.90992 7.86506 4.77161 8.04676 4.655C8.19985 4.55274 8.35877 4.45947 8.5227 4.37567C8.62711 4.3255 8.71796 4.25364 8.82508 4.20482C9.02079 4.10009 9.23403 4.03207 9.45424 4.00414C9.53695 3.93092 9.64272 3.98923 9.73764 3.95261C9.83034 3.93339 9.92537 3.92791 10.0197 3.93634C10.1014 3.93362 10.183 3.94461 10.261 3.96889C10.3383 3.99058 10.4278 3.94177 10.4997 4.00414C10.6233 4.0062 10.7457 4.02912 10.8617 4.07194C11.0263 4.10661 11.1858 4.1622 11.3363 4.23737C11.4323 4.28468 11.5372 4.31102 11.6441 4.31465C11.8895 4.31759 12.1301 4.38242 12.3438 4.50313C12.4526 4.55711 12.5459 4.63782 12.615 4.73771C12.6651 4.82449 12.7682 4.87331 12.7831 5.0089C12.9187 4.90992 12.9635 4.7567 13.0869 4.66042L12.699 4.42042C12.7151 4.39383 12.7338 4.36886 12.7546 4.34584C12.9079 4.20075 13.0557 4.04889 13.2211 3.91736C13.3982 3.77952 13.5825 3.65098 13.773 3.53227C14.0767 3.33837 14.3831 3.14989 14.6896 2.96141C14.9296 2.81497 15.1493 2.63869 15.4001 2.51123C15.5562 2.3761 15.7201 2.25024 15.891 2.13428C16.0498 1.99713 16.2169 1.86988 16.3913 1.75325C16.4704 1.69447 16.5456 1.63061 16.6164 1.56206C16.8872 1.34432 17.1386 1.10341 17.3676 0.842048C17.5129 0.682858 17.6453 0.512376 17.7635 0.332209C17.8288 0.21471 17.9061 0.104287 17.9941 0.00271042L18.1025 0ZM18.2992 17.119L18.9771 16.3745V16.2078C18.9264 16.1648 18.8631 16.1396 18.7968 16.1359C18.6056 16.1359 18.4144 16.1359 18.2219 16.1359C18.1806 16.1339 18.1393 16.1406 18.1008 16.1556C18.0623 16.1705 18.0273 16.1934 17.9981 16.2227C17.998 16.4039 18.008 16.585 18.028 16.7651C18.0415 16.8888 18.0987 17.0037 18.1893 17.0891L18.2246 17.1203L18.2992 17.119ZM15.4191 8.70525L15.6306 8.91542H15.6645L15.83 8.74999C15.831 8.38294 15.8052 8.0163 15.7527 7.65302L15.5045 8.14117C15.4841 8.17189 15.469 8.2058 15.4598 8.24151C15.4421 8.40422 15.4313 8.56287 15.4191 8.70525V8.70525ZM9.43797 7.9215C9.53153 7.96896 9.61696 8.02049 9.70916 8.0571C9.79941 8.11795 9.9098 8.14129 10.017 8.12218C9.94781 7.99472 9.93968 7.85099 9.79866 7.75336L9.40136 7.80218L9.43797 7.9215Z" fill="#E3B76D"/>
<path d="M0 29.2551C0.046015 29.2409 0.0880416 29.2161 0.122673 29.1826C0.157304 29.1492 0.183564 29.108 0.199326 29.0625C0.287987 28.9357 0.335342 28.7847 0.334922 28.63C0.405431 28.4944 0.353906 28.3588 0.397297 28.2151C0.419534 28.1072 0.474858 28.0091 0.555556 27.9342C0.636255 27.8593 0.738303 27.8115 0.847473 27.7974C0.87203 27.7918 0.896069 27.784 0.919339 27.7744C0.952291 27.6906 0.980362 27.6051 1.00341 27.5181C1.02239 27.4164 1.12409 27.3676 1.1485 27.2727C1.2963 27.1818 1.41969 27.0544 1.60274 27.0177C1.73834 26.9879 1.87393 26.9418 2.01902 26.9188C2.17542 26.8903 2.33022 26.8537 2.48276 26.8089C2.64466 26.766 2.80402 26.7139 2.96005 26.653C3.11463 26.592 3.27599 26.5459 3.43193 26.4862C3.72617 26.375 4.01228 26.2503 4.29974 26.1242C4.47737 26.0469 4.64687 25.952 4.82314 25.8747C4.96887 25.8177 5.11105 25.7521 5.24891 25.6781C5.51197 25.5208 5.79129 25.396 6.04893 25.2306C6.23469 25.1113 6.42724 25.0001 6.61436 24.8808C6.76216 24.7845 6.90047 24.6706 7.04284 24.5648C7.28149 24.3885 7.50387 24.1919 7.75065 24.0224C7.83802 23.956 7.92176 23.885 8.0015 23.8096C8.08829 23.7336 8.171 23.6509 8.2632 23.5831C8.48431 23.4162 8.69113 23.2311 8.88152 23.0299C8.99124 22.9097 9.09228 22.7819 9.1839 22.6475C9.2639 22.5322 9.34526 22.4183 9.43475 22.3112C9.48226 22.2659 9.53454 22.2259 9.59069 22.1919C9.77917 22.3465 9.76154 22.5512 9.75882 22.7343C9.68425 22.9729 9.51611 23.1302 9.40492 23.3228C9.32627 23.4584 9.23136 23.594 9.15 23.7295C9.05508 23.8882 8.96559 24.0482 8.87881 24.2109C8.80578 24.3242 8.76933 24.4572 8.7744 24.5919C8.78118 24.6638 8.7744 24.737 8.7744 24.8075C8.62104 24.9595 8.47918 25.1227 8.34998 25.2957C8.26863 25.4014 8.16964 25.4909 8.08964 25.5953C7.9893 25.7309 7.86726 25.8367 7.7737 25.9723C7.70591 26.0713 7.61235 26.1526 7.53777 26.2435C7.38454 26.436 7.20963 26.6096 7.06725 26.8116C6.99538 26.9147 6.89911 27.0015 6.81775 27.0977C6.7364 27.194 6.64962 27.3093 6.57097 27.4069L6.63877 27.6781L6.73368 27.731C6.73492 27.7404 6.73492 27.75 6.73368 27.7595C6.68213 27.814 6.63667 27.874 6.59809 27.9384C6.53436 28.074 6.40419 28.1201 6.29707 28.1934C6.13028 28.31 5.94316 28.3981 5.76418 28.4984L5.22179 28.7968C5.19386 28.8081 5.16475 28.8163 5.13501 28.8212C4.93927 29.0141 4.68878 29.142 4.41771 29.1873C4.27725 29.2232 4.13384 29.2463 3.98923 29.2564C3.9255 29.2564 3.86312 29.2808 3.79939 29.2876C3.73566 29.2944 3.6638 29.2646 3.61634 29.2876C3.5499 29.3324 3.48074 29.2958 3.42379 29.3161C3.21497 29.388 2.99802 29.4286 2.78649 29.4951C2.60227 29.5585 2.4149 29.6124 2.22513 29.6564C2.02851 29.6944 1.83461 29.7473 1.64071 29.792C1.50511 29.8273 1.36952 29.8612 1.22307 29.887C1.07663 29.9127 0.951883 29.9425 0.816287 29.971V29.9873H0.477298C0.477298 29.9778 0.477297 29.9615 0.46645 29.9602C0.387457 29.9531 0.311295 29.9273 0.244309 29.8848C0.177323 29.8424 0.121454 29.7845 0.0813583 29.7161C0.058307 29.6849 0.0325434 29.6551 0.0067802 29.6239L0 29.2551Z" fill="#E3B76D"/>
<path d="M0 29.6272C0.0257632 29.6584 0.0515268 29.6882 0.0745781 29.7194C0.113934 29.7901 0.169946 29.8502 0.23776 29.8944C0.305574 29.9386 0.383143 29.9655 0.463739 29.973C0.463739 29.973 0.470517 29.9906 0.474585 30.0001H0V29.6272Z" fill="#E3B76D"/>
<path d="M10.286 20.271H10.3877C10.3877 20.2805 10.4026 20.2886 10.404 20.2981C10.4202 20.4527 10.3429 20.591 10.3253 20.7402C10.2657 20.793 10.3429 20.8866 10.2684 20.9368C10.2539 21.054 10.229 21.1698 10.1938 21.2825L9.98633 21.2161L10.286 20.271Z" fill="#E3B76D"/>
<path d="M19.3457 11.1878H19.2969V10.2156C19.3498 10.2021 19.404 10.1885 19.4447 10.2441C19.5518 10.5722 19.4718 10.8828 19.3457 11.1878Z" fill="#E3B76D"/>
</svg>
