<svg width="126" height="126" viewBox="0 0 126 126" fill="none" xmlns="http://www.w3.org/2000/svg">
<g clip-path="url(#clip0)">
<path d="M66.8534 0H48.4629V10.9565H55.8969V32.8696H66.8534V0Z" fill="#7AB2BE"/>
<path d="M26.2915 10.9565H33.7255V0H15.335V32.8696H26.2915V10.9565Z" fill="#A2D9D9"/>
<path d="M91.4906 48.6362V92.5828C91.4906 104.968 81.4147 115.044 69.0297 115.044C56.6447 115.044 46.5688 104.968 46.5688 92.5828V80.3753C59.6706 77.8131 69.5882 66.2463 69.5882 52.408V32.8698H53.1534V52.408C53.1534 59.0586 47.7436 64.4711 41.0903 64.4711V80.9059C39.2167 80.9059 37.3859 80.7221 35.6123 80.3753V92.5828C35.6123 111.009 50.6033 126 69.0297 126C87.4561 126 102.447 111.009 102.447 92.5828V48.6359C100.732 49.244 98.8892 49.5784 96.9686 49.5784C95.0482 49.5784 93.2053 49.2443 91.4906 48.6362Z" fill="#094972"/>
<path d="M96.9697 38.6212C93.949 38.6212 91.4917 36.1636 91.4917 33.1429C91.4917 30.1222 93.949 27.6647 96.9697 27.6647V16.7081C87.9076 16.7081 80.5352 24.0808 80.5352 33.1429C80.5352 40.2847 85.1156 46.374 91.4917 48.6354C93.2064 49.2435 95.0493 49.5777 96.9697 49.5777V38.6212Z" fill="#A2D9D9"/>
<path d="M113.406 33.1429C113.406 24.0808 106.034 16.7081 96.9717 16.7081V27.6647C99.9924 27.6647 102.45 30.1222 102.45 33.1429C102.45 36.1636 99.9921 38.6212 96.9717 38.6212V49.5777C98.8924 49.5777 100.736 49.2435 102.45 48.6352C108.826 46.3737 113.406 40.2844 113.406 33.1429Z" fill="#7AB2BE"/>
<path d="M91.4932 33.143C91.4932 36.1637 93.9504 38.6212 96.9711 38.6212C99.9919 38.6212 102.449 36.1637 102.449 33.143C102.449 30.1222 99.9916 27.6647 96.9711 27.6647C93.9504 27.6647 91.4932 30.1222 91.4932 33.143Z" fill="#FFCE00"/>
<path d="M41.0926 64.4711C34.4393 64.4711 29.0295 59.0586 29.0295 52.408V32.8698H12.5947V52.408C12.5947 66.2466 22.5126 77.8137 35.6147 80.3753C37.3882 80.7221 39.2191 80.9059 41.0926 80.9059V64.4711Z" fill="#F05F62"/>
</g>
<defs>
<clipPath id="clip0">
<rect width="126" height="126" fill="white"/>
</clipPath>
</defs>
</svg>
