<svg width="1440" height="1203" viewBox="0 0 1440 1203" fill="none" xmlns="http://www.w3.org/2000/svg">
<path fill-rule="evenodd" clip-rule="evenodd" d="M0 193.799L119.982 209.949C239.964 226.098 479.928 258.398 719.892 236.865C959.856 215.332 1199.82 139.966 1319.8 102.283L1439.78 64.5996V0H1319.8C1199.82 0 959.856 0 719.892 0C479.928 0 239.964 0 119.982 0H0V193.799Z" fill="#E4B96F"/>
<path fill-rule="evenodd" clip-rule="evenodd" d="M1440 30.5055H1380.01C1320.02 30.5055 1200.04 30.5055 1080.05 62.8053C960.072 95.1051 840.09 159.705 720.108 192.004C600.126 224.304 480.144 224.304 360.162 213.538C240.18 202.771 120.198 181.238 60.2065 170.471L0.215576 159.705V288.904H60.2065C120.198 288.904 240.18 288.904 360.162 288.904C480.144 288.904 600.126 288.904 720.108 288.904C840.09 288.904 960.072 288.904 1080.05 288.904C1200.04 288.904 1320.02 288.904 1380.01 288.904H1440V30.5055Z" fill="#E7C074"/>
<rect x="0.21582" y="288.904" width="1439.78" height="87.03" fill="#E7C074"/>
<path fill-rule="evenodd" clip-rule="evenodd" d="M1440 159.705L1380.01 192.004C1320.02 224.304 1200.04 288.904 1080.05 315.82C960.072 342.737 840.09 331.97 720.108 305.054C600.126 278.137 480.144 235.071 360.162 240.454C240.18 245.837 120.198 299.67 60.2065 326.587L0.215576 353.503V385.803H60.2065C120.198 385.803 240.18 385.803 360.162 385.803C480.144 385.803 600.126 385.803 720.108 385.803C840.09 385.803 960.072 385.803 1080.05 385.803C1200.04 385.803 1320.02 385.803 1380.01 385.803H1440V159.705Z" fill="#EBCC7C"/>
<rect x="0.21582" y="359.784" width="1439.78" height="172.266" fill="#EBCC7C"/>
<path fill-rule="evenodd" clip-rule="evenodd" d="M0.21582 372.357L60.2068 361.59C120.198 350.824 240.18 329.291 360.162 361.59C480.144 393.89 600.126 480.023 720.108 512.323C840.09 544.623 960.072 523.089 1080.05 512.323C1200.04 501.556 1320.02 501.556 1380.01 501.556H1440V630.755H1380.01C1320.02 630.755 1200.04 630.755 1080.05 630.755C960.072 630.755 840.09 630.755 720.108 630.755C600.126 630.755 480.144 630.755 360.162 630.755C240.18 630.755 120.198 630.755 60.2068 630.755H0.21582V372.357Z" fill="#EDD581"/>
<rect x="0.21582" y="619.977" width="1439.78" height="174.06" fill="#EDD581"/>
<path fill-rule="evenodd" clip-rule="evenodd" d="M1440 515.002L1380.01 552.685C1320.02 590.368 1200.04 595.751 1080.05 649.584C960.072 703.417 840.09 735.717 720.108 719.567C600.126 703.417 480.144 638.818 360.162 628.051C240.18 617.285 120.198 730.334 60.2065 751.867L0.215576 773.4V838H60.2065C120.198 838 240.18 838 360.162 838C480.144 838 600.126 838 720.108 838C840.09 838 960.072 838 1080.05 838C1200.04 838 1320.02 838 1380.01 838H1440V515.002Z" fill="#EFDC83"/>
<rect y="817" width="1440" height="386" fill="url(#paint0_linear)"/>
<defs>
<linearGradient id="paint0_linear" x1="720" y1="915.5" x2="720" y2="1203" gradientUnits="userSpaceOnUse">
<stop stop-color="#EFDC83"/>
<stop offset="1" stop-color="#EFDC83" stop-opacity="0.05"/>
</linearGradient>
</defs>
</svg>
