<svg width="28" height="27" viewBox="0 0 28 27" fill="none" xmlns="http://www.w3.org/2000/svg">
<path d="M2.22656 4.13472H7.83896C7.72249 3.5241 8.06226 2.87528 8.69043 2.66049V2.33472H2.22656C1.12199 2.33472 0.226562 3.23015 0.226562 4.33472V24.787C0.226562 25.8916 1.122 26.787 2.22656 26.787H22.6789C23.7834 26.787 24.6789 25.8916 24.6789 24.787V13.9143L22.8789 18.979V24.787C22.8789 24.8975 22.7893 24.987 22.6789 24.987H2.22656C2.11611 24.987 2.02656 24.8975 2.02656 24.787V4.33472C2.02656 4.22426 2.11611 4.13472 2.22656 4.13472Z" fill="black"/>
<path d="M26.8715 1.78365L21.5609 16.7265C21.4835 16.9441 21.1996 16.9964 21.0499 16.8206L10.7643 4.75003C10.6145 4.57425 10.7112 4.30224 10.9383 4.26041L26.5345 1.38815C26.7616 1.34632 26.9489 1.56604 26.8715 1.78365Z" stroke="black" stroke-width="2"/>
</svg>
